<?xml version="1.0" encoding="UTF-8"?>
<svg width="23px" height="22px" viewBox="0 0 23 22" version="1.1" xmlns="http://www.w3.org/2000/svg" xmlns:xlink="http://www.w3.org/1999/xlink">
    <!-- Generator: Sketch 64 (93537) - https://sketch.com -->
    <title>after-03-icon@1.5x</title>
    <desc>Created with Sketch.</desc>
    <g id="EH-Website-HXWorkbench-v2" stroke="none" stroke-width="1" fill="none" fill-rule="evenodd" stroke-linecap="round" stroke-linejoin="round">
        <g id="01-Product-Desktop-v2" transform="translate(-811.000000, -1966.000000)" stroke="#FFFFFF" stroke-width="2">
            <g id="Product" transform="translate(-34.000000, 209.000000)">
                <g id="old-vs-new" transform="translate(34.000000, 884.000000)">
                    <g id="After" transform="translate(403.000000, 673.000000)">
                        <g id="graphic-after" transform="translate(0.000000, 170.000000)">
                            <g id="after-03" transform="translate(378.000000, 0.000000)">
                                <g id="after-03-icon" transform="translate(31.000000, 31.000000)">
                                    <path d="M16,7 L17,7 C19.209139,7 21,8.790861 21,11 C21,13.209139 19.209139,15 17,15 L16,15" id="Path"></path>
                                    <path d="M0,7 L16,7 L16,16 C16,18.209139 14.209139,20 12,20 L4,20 C1.790861,20 0,18.209139 0,16 L0,7 Z" id="Path"></path>
                                    <line x1="4" y1="0" x2="4" y2="3" id="Path"></line>
                                    <line x1="8" y1="0" x2="8" y2="3" id="Path"></line>
                                    <line x1="12" y1="0" x2="12" y2="3" id="Path"></line>
                                </g>
                            </g>
                        </g>
                    </g>
                </g>
            </g>
        </g>
    </g>
</svg>