<?xml version="1.0" encoding="UTF-8"?>
<svg width="739px" height="534px" viewBox="0 0 739 534" version="1.1" xmlns="http://www.w3.org/2000/svg" xmlns:xlink="http://www.w3.org/1999/xlink">
    <!-- Generator: Sketch 64 (93537) - https://sketch.com -->
    <title>HX-Design-graphic@1.5x</title>
    <desc>Created with Sketch.</desc>
    <g id="EH-Website-HXDesign-v2" stroke="none" stroke-width="1" fill="none" fill-rule="evenodd">
        <g id="03-HXDesign-Desktop-v2" transform="translate(-357.000000, -723.000000)">
            <g id="HX-Design" transform="translate(-58.000000, 353.000000)">
                <g id="Illustration/HX-Design-graphic" transform="translate(415.000000, 372.000000)">
                    <g id="HX-Design-graphic">
                        <rect id="line" fill="#FF2198" transform="translate(464.192533, 152.286549) rotate(-40.000000) translate(-464.192533, -152.286549) " x="399.192533" y="150.286549" width="130" height="4" rx="2"></rect>
                        <rect id="line" fill="#FF2198" transform="translate(227.313467, 331.500000) rotate(-30.000000) translate(-227.313467, -331.500000) " x="137.813467" y="329.5" width="179" height="4" rx="2"></rect>
                        <rect id="line" fill="#FF2198" transform="translate(416.232577, 350.024119) rotate(-116.000000) translate(-416.232577, -350.024119) " x="345.232577" y="348.024119" width="142" height="4" rx="2"></rect>
                        <rect id="line" fill="#FF2198" transform="translate(521.000000, 280.000000) rotate(-171.000000) translate(-521.000000, -280.000000) " x="430" y="278" width="182" height="4" rx="2"></rect>
                        <rect id="line" fill="#FF2198" transform="translate(216.336510, 178.680986) rotate(27.000000) translate(-216.336510, -178.680986) " x="126.83651" y="176.680986" width="179" height="4" rx="2"></rect>
                        <rect id="line" fill="#FF2198" transform="translate(344.291016, 167.033203) rotate(77.000000) translate(-344.291016, -167.033203) " x="253.291016" y="165.033203" width="182" height="4" rx="2"></rect>
                        <rect id="line" fill="#FF2198" transform="translate(306.000000, 390.000000) rotate(-69.000000) translate(-306.000000, -390.000000) " x="215" y="388" width="182" height="4" rx="2"></rect>
                        <rect id="line" fill="#FF2198" transform="translate(399.000000, 273.000000) rotate(33.000000) translate(-399.000000, -273.000000) " x="308" y="271" width="182" height="4" rx="2"></rect>
                        <rect id="line" fill="#FF2198" x="181" y="256" width="182" height="4" rx="2"></rect>
                        <rect id="line" fill="#FF2198" transform="translate(520.000000, 215.000000) rotate(-16.000000) translate(-520.000000, -215.000000) " x="429" y="213" width="182" height="4" rx="2"></rect>
                        <circle id="Oval" stroke="#FF2198" stroke-width="4" cx="321" cy="64" r="15"></circle>
                        <circle id="Oval" stroke="#FF2198" stroke-width="4" cx="621" cy="185" r="15"></circle>
                        <circle id="Oval" stroke="#FF2198" stroke-width="4" cx="170.5" cy="258.5" r="10.5"></circle>
                        <circle id="Oval" fill="#FF2198" cx="202" cy="208" r="5"></circle>
                        <circle id="Oval" fill="#FF2198" cx="256" cy="91" r="5"></circle>
                        <circle id="Oval" fill="#FF2198" cx="246" cy="290" r="5"></circle>
                        <circle id="Oval" fill="#FF2198" cx="77" cy="285" r="5"></circle>
                        <circle id="Oval" fill="#FF2198" cx="5" cy="186" r="5"></circle>
                        <circle id="Oval" fill="#FF2198" cx="459" cy="121" r="5"></circle>
                        <circle id="Oval" fill="#FF2198" cx="692" cy="185" r="5"></circle>
                        <circle id="Oval" fill="#FF2198" cx="458" cy="208" r="5"></circle>
                        <circle id="Oval" fill="#FF2198" cx="407" cy="170" r="5"></circle>
                        <circle id="Oval" fill="#FF2198" cx="271" cy="390" r="5"></circle>
                        <circle id="Oval" fill="#FF2198" cx="388" cy="344" r="5"></circle>
                        <circle id="Oval" fill="#FF2198" cx="526" cy="376" r="5"></circle>
                        <circle id="Oval" fill="#FF2198" cx="596" cy="251" r="5"></circle>
                        <circle id="Oval" stroke="#FF2198" stroke-width="4" cx="484.5" cy="328.5" r="10.5"></circle>
                        <circle id="Oval" stroke="#FF2198" stroke-width="4" cx="266" cy="492" r="20"></circle>
                        <circle id="Oval" stroke="#FF2198" stroke-width="4" cx="482.5" cy="466.5" r="63.5"></circle>
                        <text id="UI-Design" font-family="Poppins-Bold, Poppins" font-size="16" font-weight="bold" line-spacing="21" fill="#FF2198">
                            <tspan x="435.604" y="472">UI Design</tspan>
                        </text>
                        <circle id="Oval" stroke="#FF2198" stroke-width="4" cx="673.5" cy="299.5" r="63.5"></circle>
                        <text id="Psychology" font-family="Poppins-Bold, Poppins" font-size="16" font-weight="bold" line-spacing="28" fill="#FF2198">
                            <tspan x="625.684" y="304">Psychology</tspan>
                        </text>
                        <circle id="Oval" fill="#FF2198" cx="362.5" cy="247.5" r="76.5"></circle>
                        <text id="Empathy" font-family="Poppins-Bold, Poppins" font-size="24" font-weight="bold" line-spacing="34" fill="#FFFFFF">
                            <tspan x="306.424" y="256">Empathy</tspan>
                        </text>
                        <g id="empathy-icon" transform="translate(347.000000, 198.000000)" stroke="#FFFFFF" stroke-linecap="round" stroke-linejoin="round" stroke-width="3">
                            <circle id="Oval" cx="15" cy="15" r="15"></circle>
                            <path d="M9,18 C9,18 11.25,21 15,21 C18.75,21 21,18 21,18" id="Path"></path>
                            <line x1="10.5" y1="10.5" x2="10.515" y2="10.5" id="Path"></line>
                            <line x1="19.5" y1="10.5" x2="19.515" y2="10.5" id="Path"></line>
                        </g>
                        <circle id="Oval" stroke="#FF2198" stroke-width="4" cx="82.5" cy="106.5" r="63.5"></circle>
                        <text id="UX-Design" font-family="Poppins-Bold, Poppins" font-size="16" font-weight="bold" line-spacing="21" fill="#FF2198">
                            <tspan x="32.332" y="113">UX Design</tspan>
                        </text>
                        <circle id="Oval" stroke="#FF2198" stroke-width="4" cx="557.5" cy="63.5" r="63.5"></circle>
                        <text id="User-Research" font-family="Poppins-Bold, Poppins" font-size="16" font-weight="bold" line-spacing="21" fill="#FF2198">
                            <tspan x="530.044" y="58">User </tspan>
                            <tspan x="509.836" y="79">Research</tspan>
                        </text>
                        <circle id="Oval" stroke="#FF2198" stroke-width="4" cx="93.5" cy="402.5" r="63.5"></circle>
                        <text id="Design-Thinking" font-family="Poppins-Bold, Poppins" font-size="16" font-weight="bold" line-spacing="21" fill="#FF2198">
                            <tspan x="56.092" y="397">Design </tspan>
                            <tspan x="48.732" y="418">Thinking</tspan>
                        </text>
                    </g>
                </g>
            </g>
        </g>
    </g>
</svg>