<?xml version="1.0" encoding="UTF-8"?>
<svg width="1427px" height="453px" viewBox="0 0 1427 453" version="1.1" xmlns="http://www.w3.org/2000/svg" xmlns:xlink="http://www.w3.org/1999/xlink">
    <!-- Generator: Sketch 64 (93537) - https://sketch.com -->
    <title>Illustration/HXDesign/02@1.5x</title>
    <desc>Created with Sketch.</desc>
    <g id="EH-Website-HXDesign-v2" stroke="none" stroke-width="1" fill="none" fill-rule="evenodd">
        <g id="03-HXDesign-Desktop-v2" transform="translate(0.000000, -119.000000)">
            <g id="Hero" transform="translate(-11.000000, 0.000000)">
                <g id="bg">
                    <g id="Background/HXDesign/Desktop">
                        <g id="Illustration/HXDesign/02" transform="translate(-20.000000, 118.000000)">
                            <g>
                                <g id="persona" opacity="0.601167225" transform="translate(1347.000000, 205.500000) rotate(4.000000) translate(-1347.000000, -205.500000) translate(1232.000000, 69.000000)">
                                    <g id="persona-01-audience" transform="translate(1.000000, 0.000000)">
                                        <g>
                                            <g>
                                                <g id="Head" transform="translate(78.565966, 32.036556) scale(-1, 1) rotate(12.000000) translate(-78.565966, -32.036556) translate(60.542817, 3.746401)">
                                                    <g transform="translate(2.827160, 4.950777)" fill="#EAAB86">
                                                        <path d="M26.959337,6.46000955 C31.055052,14.0991449 30.5683745,33.4764452 25.2750278,34.8417718 C23.1639981,35.3862752 18.6668201,34.0524152 14.0897963,31.2917597 L16.962963,51.6295337 L0,51.6295337 L5.83913157,24.3926161 C2.58261505,20.5673768 0.37860257,15.8795824 0.746919076,10.6268107 C1.80820253,-4.50875807 22.863622,-1.1791258 26.959337,6.46000955 Z"></path>
                                                    </g>
                                                    <path d="M7.36343729,32.7511735 C5.23441847,23.2732208 -0.83080867,16.8124181 0.0954970038,12.5761786 C0.713034119,9.75201887 2.35895566,7.99577311 5.03326162,7.30744128 C6.41638734,1.70837236 10.8772516,-0.673129876 18.4158544,0.162934558 C29.7237585,1.41703121 36.6254738,6.11616095 33.644964,16.456297 C30.9051747,16.456297 27.5976635,15.464804 23.0240628,17.1635509 C21.5728778,17.7025565 20.5349477,19.3740599 19.9102726,22.1780614 L17.8434806,22.1780614 C15.8375718,18.8504783 13.859733,17.6276823 11.9099639,18.5096734 C9.96019494,19.3916646 9.51698075,21.5340245 10.5803214,24.9367534 L9.56221732,32.7511735 L7.36343729,32.7511735 Z" id="Hair" fill="#532712"></path>
                                                    <path d="M31.9596025,25.1924222 C32.7408135,25.1924222 33.3741103,25.8257189 33.3741103,26.60693 L33.3741103,30.8458157 C33.3741103,31.6270267 32.7408135,32.2603234 31.9596025,32.2603234 C31.1783914,32.2603234 30.5450947,31.6270267 30.5450947,30.8458157 L30.5450947,26.60693 C30.5450947,25.8257189 31.1783914,25.1924222 31.9596025,25.1924222 Z" id="nose" fill="#DA9770" transform="translate(31.959602, 28.726373) rotate(-90.000000) translate(-31.959602, -28.726373) "></path>
                                                    <path d="M25.4444444,19.0958549 C25.8347939,19.0958549 26.1512346,19.4122956 26.1512346,19.802645 L26.1512346,25.4616037 C26.1512346,25.8519531 25.8347939,26.1683938 25.4444444,26.1683938 C25.054095,26.1683938 24.7376543,25.8519531 24.7376543,25.4616037 L24.7376543,19.802645 C24.7376543,19.4122956 25.054095,19.0958549 25.4444444,19.0958549 Z M29.7987581,18.4191628 C30.1891075,18.4191628 30.5055482,18.7356035 30.5055482,19.125953 L30.5055482,24.7849116 C30.5055482,25.175261 30.1891075,25.4917017 29.7987581,25.4917017 C29.4084087,25.4917017 29.091968,25.175261 29.091968,24.7849116 L29.091968,19.125953 C29.091968,18.7356035 29.4084087,18.4191628 29.7987581,18.4191628 Z" id="eyes" fill="#13202F"></path>
                                                </g>
                                                <g id="Bottom" transform="translate(119.447531, 187.775907) scale(-1, 1) translate(-119.447531, -187.775907) translate(9.895062, 103.259067)">
                                                    <polygon id="Leg" fill="#DA9770" points="92.5895062 0 145.108545 87.8599643 184.482714 162.138158 192.963561 162.138158 126.991588 3.60019033e-13"></polygon>
                                                    <g id="Right-Shoe" transform="translate(178.111111, 154.181347)" fill="#E4E4E4">
                                                        <path d="M0.960588551,5.14589345 C0.320196184,6.95095863 0,8.32533969 0,9.26903662 C0,10.5444178 0.212329793,12.4055161 0.636989378,14.8523316 C2.11555089,14.8523316 15.4036322,14.8523316 40.5012332,14.8523316 C41.5371636,11.425338 40.9391645,9.57521447 38.7072359,9.30196094 C36.4753073,9.0287074 34.6212064,8.78198133 33.144933,8.56178273 L14.8922623,0.419311941 C14.387888,0.194311841 13.7966133,0.420789351 13.5716132,0.925163616 C13.5676995,0.93393669 13.5639125,0.942765702 13.5602533,0.951647903 L12.4841846,3.56363665 L12.4841846,3.56363665 C10.4180025,4.52830062 8.739015,5.0106326 7.44722216,5.0106326 C6.5019276,5.0106326 5.23224459,4.66655619 3.63817312,3.97840335 L3.63817725,3.97839379 C2.62406287,3.54060558 1.44706327,4.00781026 1.00927506,5.02192464 C0.991674437,5.06269561 0.975436599,5.10404146 0.960588551,5.14589345 Z" id="shoe"></path>
                                                    </g>
                                                    <path d="M173.547407,150.243986 L189.902571,145.293209 C182.736928,123.857748 173.954415,100.268809 163.555033,74.5263923 C153.15565,48.7839755 141.9871,23.9418447 130.049383,0 L83.8564591,0 C97.128634,30.2853342 111.198919,57.8034479 126.067315,82.5543411 C140.93571,107.305234 156.762408,129.868449 173.547407,150.243986 Z" id="Pant" fill="#2770CF"></path>
                                                    <path d="M89.1379871,0 C84.1811762,30.8745947 74.6208452,70.3204635 73.7186078,71.5377747 C73.1171161,72.3493155 51.4632628,79.6100527 8.75704789,93.3199862 L10.5890131,100.803438 C61.5160743,93.4507121 88.3502923,87.7461648 91.0916673,83.6897962 C95.2037297,77.6052432 115.735812,29.5371409 123.688272,0 L89.1379871,0 Z" id="Leg" fill="#DA9770"></path>
                                                    <path d="M23.769004,86.8511146 L26.9958112,98.9037549 C65.0862857,102.246719 88.4251608,99.8312173 97.0124364,91.6572508 C105.599712,83.4832843 115.386671,52.9308674 126.373314,0 L82.3256031,0 C75.3647247,43.3432582 71.4731406,65.9246383 70.6508509,67.7441402 C69.8285612,69.5636422 54.2012789,75.9326337 23.769004,86.8511146 Z" id="Pant" fill="#338CFF"></path>
                                                    <g id="Accessories/Shoe/Flat-Sneaker" transform="translate(18.023148, 108.917098) rotate(80.000000) translate(-18.023148, -108.917098) translate(-3.533951, 94.772021)" fill="#E4E4E4">
                                                        <path d="M1.66737867,18.5837173 C1.02698631,20.3887825 0.706790123,21.7631635 0.706790123,22.7068605 C0.706790123,23.9822416 0.919119916,25.84334 1.3437795,28.2901554 C2.82234101,28.2901554 16.1104223,28.2901554 41.2080233,28.2901554 C42.2439537,24.8631619 41.6459546,23.0130383 39.414026,22.7397848 C37.1820975,22.4665312 35.3279965,22.2198052 33.8517231,21.9996066 L15.5990524,13.8571358 C15.0946782,13.6321357 14.5034034,13.8586132 14.2784033,14.3629875 C14.2744897,14.3717605 14.2707026,14.3805895 14.2670434,14.3894717 L13.1909747,17.0014605 L13.1909747,17.0014605 C11.1247926,17.9661245 9.44580512,18.4484564 8.15401229,18.4484564 C7.20871773,18.4484564 5.93903471,18.10438 4.34496325,17.4162272 L4.34496738,17.4162176 C3.33085299,16.9784294 2.15385339,17.4456341 1.71606519,18.4597485 C1.69846456,18.5005194 1.68222672,18.5418653 1.66737867,18.5837173 Z" id="shoe"></path>
                                                    </g>
                                                </g>
                                                <g id="Body" transform="translate(101.943920, 105.077095) scale(-1, 1) rotate(21.000000) translate(-101.943920, -105.077095) translate(17.482500, 40.716991)">
                                                    <path d="M35.3181554,52.6548279 L50.7950156,52.7129498 C33.8242183,90.9285695 24.9753813,110.937662 24.2485047,112.740228 C22.6130323,116.796001 26.0739118,122.972872 27.5539213,126.292277 C22.7335798,128.450652 23.2471923,120.45731 17.1664612,123.288138 C11.6162518,125.871987 7.39422135,130.553749 0.981756368,126.594465 C0.193381478,126.107694 -0.670548959,124.274915 1.4168162,122.842694 C6.61720403,119.274511 14.1112779,113.029548 15.1238453,110.97397 C16.5046619,108.170822 23.2360986,88.7311083 35.3181554,52.6548279 L35.3181554,52.6548279 Z M166.585593,39.1218879 C163.458724,41.7303415 160.286074,44.6158359 160.843187,46.0079221 C161.4003,47.4000082 164.30825,46.882059 164.789982,49.0232058 C165.111137,50.4506371 160.391712,50.6825804 150.631709,49.7190359 L127.988294,58.7020725 L122.981481,46.1913099 L150.887588,42.3823057 C156.469942,39.2752415 161.605436,37.1718134 166.294072,36.0720214 C167.613502,36.0334726 169.712463,36.5134343 166.585593,39.1218879 Z" id="Skin" fill="#DA9770"></path>
                                                    <path d="M74.5455272,6.83655619 L86.6876951,6.58513712 C92.0154959,33.240175 109.696891,48.8240643 145.450754,39.8965386 L153.300152,74.1358149 C119.795529,81.4831424 88.8878306,70.5070601 79.5810224,34.2819588 C77.1717838,24.9044244 75.0604106,15.11064 74.5455272,6.83655619 Z" id="Clothes-Back" fill="#AFB9C5" transform="translate(113.922840, 41.438845) rotate(5.000000) translate(-113.922840, -41.438845) "></path>
                                                    <path d="M71.7230504,0 L71.7328351,0.011 L90.0928439,4.21896504 C90.0928439,35.4634155 99.9273957,55.5249693 105.135976,78.4304445 L105.311728,79.2124352 L55.7259478,79.2120702 C55.0274263,87.2401522 54.5984723,95.4915692 54.3749477,103.966321 L54.3749477,103.966321 L17.2468351,103.966321 C25.6602736,59.1716632 43.4181959,24.5162227 70.5206019,0 L70.5206019,0 L71.7230504,0 Z" id="Clothes" fill="#C5CFD6"></path>
                                                    <path d="M63.5491503,34.1328326 C62.2713974,53.8230514 63.0229769,68.8495857 65.8038888,79.2124352 L65.8038888,79.2124352 L55.7259568,79.2119662 C57.1000103,63.4200779 59.5171321,48.4923642 63.4655063,34.4288252 Z" id="Shade" fill-opacity="0.1" fill="#000000"></path>
                                                </g>
                                            </g>
                                        </g>
                                    </g>
                                    <g id="outside" transform="translate(102.958071, 105.221744) scale(-1, 1) rotate(21.000000) translate(-102.958071, -105.221744) translate(18.458071, 40.721744)">
                                        <path d="M35.3181554,52.6548279 L50.7950156,52.7129498 C33.8242183,90.9285695 24.9753813,110.937662 24.2485047,112.740228 C22.6130323,116.796001 26.0739118,122.972872 27.5539213,126.292277 C22.7335798,128.450652 23.2471923,120.45731 17.1664612,123.288138 C11.6162518,125.871987 7.39422135,130.553749 0.981756368,126.594465 C0.193381477,126.107694 -0.670548959,124.274915 1.4168162,122.842694 C6.61720403,119.274511 14.1112779,113.029548 15.1238453,110.97397 C16.5046619,108.170822 23.2360986,88.7311083 35.3181554,52.6548279 L35.3181554,52.6548279 Z M166.585593,39.1218879 C163.458724,41.7303415 160.286074,44.6158359 160.843187,46.0079221 C161.4003,47.4000082 164.30825,46.882059 164.789982,49.0232058 C165.111137,50.4506371 160.391712,50.6825804 150.631709,49.7190359 L127.988294,58.7020725 L122.981481,46.1913099 L150.887588,42.3823057 C156.469942,39.2752415 161.605436,37.1718134 166.294072,36.0720214 C167.613502,36.0334726 169.712463,36.5134343 166.585593,39.1218879 Z" id="Skin" fill="#DA9770"></path>
                                        <path d="M74.5455272,6.83655619 L86.6876951,6.58513712 C92.0154959,33.240175 109.696891,48.8240643 145.450754,39.8965386 L153.300152,74.1358149 C119.795529,81.4831424 88.8878306,70.5070601 79.5810224,34.2819588 C77.1717838,24.9044244 75.0604106,15.11064 74.5455272,6.83655619 Z" id="Clothes-Back" fill="#AFB9C5" transform="translate(113.922840, 41.438845) rotate(5.000000) translate(-113.922840, -41.438845) "></path>
                                        <path d="M71.7230504,0 L71.7328351,0.011 L90.0928439,4.21896504 C90.0928439,35.4634155 99.9273957,55.5249693 105.135976,78.4304445 L105.311728,79.2124352 L55.7259478,79.2120702 C55.0274263,87.2401522 54.5984723,95.4915692 54.3749477,103.966321 L54.3749477,103.966321 L17.2468351,103.966321 C25.6602736,59.1716632 43.4181959,24.5162227 70.5206019,0 L70.5206019,0 L71.7230504,0 Z" id="Clothes" fill="#C5CFD6"></path>
                                        <path d="M63.5492724,34.1309511 C62.2713496,53.8220942 63.0228884,68.8492556 65.8038888,79.2124352 L65.8038888,79.2124352 L55.7259478,79.2120702 C57.0999997,63.4201434 59.5171235,48.4923951 63.4655063,34.4288252 Z" id="Shade" fill-opacity="0.1" fill="#000000"></path>
                                    </g>
                                    <path d="M81.2201358,40.7453016 C81.4518449,44.1767809 82.4469603,47.7422938 84.2054818,51.4418403 C86.8432641,56.99116 74.1063891,64.5501743 68.0263941,56.081119 C63.9730641,50.4350822 62.986907,41.9264483 65.0679228,30.5552175 C66.4849353,34.544629 69.276957,36.2811608 73.4439879,35.7648128 C79.6945344,34.9902908 78.9874889,35.0125108 80.0407913,35.5087217 C80.7429929,35.8395291 81.1361077,37.5850557 81.2201358,40.7453016 Z" id="Path" fill="#532712" transform="translate(74.284625, 45.217058) scale(-1, 1) rotate(16.000000) translate(-74.284625, -45.217058) "></path>
                                    <path d="M63.0167752,41.7745855 C62.8155753,45.4602224 64.4242543,44.5678629 67.8428121,39.097507 C71.0603083,42.4274307 74.0394788,43.4996583 76.7803236,42.3141899 C80.8915908,40.5359872 73.8207778,34.3334486 67.2909938,36.4261027 C64.6427146,36.306121 63.217975,38.0889486 63.0167752,41.7745855 Z" id="moustache" fill="#803A19"></path>
                                </g>
                                <g id="persona-02-customer" opacity="0.801595052" transform="translate(1085.500000, 181.500000) scale(-1, 1) translate(-1085.500000, -181.500000) translate(970.000000, 1.000000)">
                                    <g>
                                        <g id="Head/Front">
                                            <g id="Head" transform="translate(102.574007, 31.681293)">
                                                <path d="M31.8090681,7.61512652 C36.6415637,16.6202188 36.0673376,39.4623822 29.8217676,41.0718434 C27.3310588,41.7136902 22.0251267,40.1414367 16.6249085,36.8873476 L20.0144404,60.8614319 L0,60.8614319 L6.88988951,28.7546842 C3.04736252,24.2453764 0.446696299,18.7192068 0.881282791,12.526995 C2.13348116,-5.31497096 26.9765725,-1.38996577 31.8090681,7.61512652 Z" fill="#EAAB86"></path>
                                                <path d="M33.7238993,24.1767452 L34.6587722,24.1767452 C35.3215139,24.1767452 35.8587722,24.7140035 35.8587722,25.3767452 L35.8587722,31.3160954 C35.8587722,31.9788371 35.3215139,32.5160954 34.6587722,32.5160954 L33.7238993,32.5160954 C33.0611576,32.5160954 32.5238993,31.9788371 32.5238993,31.3160954 L32.5238993,25.3767452 C32.5238993,24.7140035 33.0611576,24.1767452 33.7238993,24.1767452 Z" id="nose" fill="#DA9770" transform="translate(34.191336, 28.346420) rotate(-90.000000) translate(-34.191336, -28.346420) "></path>
                                                <path d="M26.1258785,15.8046201 C26.4572494,15.8046201 26.7258785,16.0732492 26.7258785,16.4046201 L26.7258785,23.5418025 C26.7258785,23.8731734 26.4572494,24.1418025 26.1258785,24.1418025 L25.6580085,24.1418025 C25.3266376,24.1418025 25.0580085,23.8731734 25.0580085,23.5418025 L25.0580085,16.4046201 C25.0580085,16.0732492 25.3266376,15.8046201 25.6580085,15.8046201 L26.1258785,15.8046201 Z M31.2634923,15.0069284 C31.5948631,15.0069284 31.8634923,15.2755576 31.8634923,15.6069284 L31.8634923,22.7441109 C31.8634923,23.0754817 31.5948631,23.3441109 31.2634923,23.3441109 L30.7956222,23.3441109 C30.4642514,23.3441109 30.1956222,23.0754817 30.1956222,22.7441109 L30.1956222,15.6069284 C30.1956222,15.2755576 30.4642514,15.0069284 30.7956222,15.0069284 L31.2634923,15.0069284 Z" id="eyes" fill="#13202F" transform="translate(28.460750, 19.574365) scale(-1, 1) translate(-28.460750, -19.574365) "></path>
                                            </g>
                                            <path d="M122.975352,28.9177314 C120.337507,28.4852659 113.234992,28.187934 111.925161,28.1881259 C111.088118,28.1881259 110.181017,28.379309 109.685261,27.6109295 C109.279277,26.9817143 109.428003,25.9175384 109.30684,25.187357 C109.166152,24.3391259 108.966318,23.5018359 108.764187,22.6666574 C108.188995,20.290113 107.31922,18.029123 106.102224,15.9063377 C103.818682,11.9237398 100.473379,8.80415328 96.2500702,6.98887334 C91.5863229,4.98452174 86.3089096,4.52556707 81.2923905,4.93211914 C75.9240565,5.36707994 71.0644951,7.13878702 65.995912,8.80607279 C61.1658279,10.3948506 56.1068154,11.0202268 51.0550765,10.2443611 C45.9652467,9.46273692 42.1194018,6.70478597 37.8262277,4.08715115 C33.4312225,1.40732423 28.4085782,-0.345379705 23.2128977,0.057525295 C18.3629068,0.433749116 13.8928682,2.43579731 9.88240928,5.1102496 C6.13016477,7.61252191 3.03407973,10.6230803 1.28610764,14.8602051 C-0.594321385,19.4180799 -0.592598679,24.4210889 2.49965812,28.4491792 C6.98175564,34.2879425 15.3026158,35.7978285 22.2252131,35.6477229 C26.2293555,35.561153 30.1619098,34.8303959 33.9422919,33.5011357 C38.9838859,31.7282769 43.3406088,28.723477 48.0571857,26.2855083 C50.2706711,25.1414808 52.5586158,24.201881 54.9568136,23.525062 C57.2839976,22.868014 59.5761533,22.566651 61.6832138,23.9721157 C63.9122037,25.4589676 65.9095853,26.9195222 68.4595726,27.8502923 C70.9058147,28.743248 73.4969556,29.2427043 76.1032179,29.2225495 C81.174098,29.1833915 86.1728158,27.6038273 91.0978401,26.5457938 C95.1140414,25.6831663 99.4112352,24.8234181 103.505724,25.6526461 C105.214265,25.9987336 107.709892,26.713175 108.327003,28.4883372 C97.9408101,30.3702241 93.8616439,43.2117412 96.7896694,52.6386433 C98.3699648,57.7266866 107.869338,63.6745554 111.562819,60.9996942 C113.902745,59.3050927 112.482169,57.0803878 111.562819,55.6117712 C109.802213,52.7993062 109.199841,49.1865978 112.457669,47.2285064 C115.267784,45.5397221 118.222428,49.5501366 118.27832,49.5457217 C119.050666,49.4848732 125.72441,45.7115589 130.322499,40.2053362 C134.85853,40.4741575 135.546711,37.4839927 134.463596,35.0386 C133.380481,32.5932072 126.620023,29.5156585 122.975352,28.9177314 Z" id="hair" fill="#191847"></path>
                                        </g>
                                        <g id="Bottom/Skinny-Jeans-1" transform="translate(9.173285, 138.397229)">
                                            <path d="M152.985043,15.2811766 C137.040562,28.281272 143.120815,142.279624 142.056634,143.714723 C141.583665,144.352545 116.313661,149.777254 66.2466208,159.988849 L68.40884,168.812223 C126.975631,165.912409 157.965496,162.288912 161.378436,157.941733 C166.264789,151.717817 172.300747,116.907008 179.486311,53.509305 L152.985043,15.2811766 Z" id="Leg" fill="#DA9770" transform="translate(122.866466, 92.046700) rotate(-55.000000) translate(-122.866466, -92.046700) "></path>
                                            <path d="M74.6869825,150.704276 L78.4953336,164.914998 C122.15326,169.933733 150.932928,163.731661 161.06203,154.09566 C167.814764,147.67166 173.866288,112.955464 179.216603,49.947071 L150.866689,9.45919718 C112.911612,38.094414 135.549,131.851918 134.579219,133.997022 C133.609439,136.142125 110.585902,137.835597 74.6869825,150.704276 Z" id="Pant" fill="#191847" transform="translate(126.951793, 88.078453) rotate(-55.000000) translate(-126.951793, -88.078453) "></path>
                                            <g id="Accessories/Shoe/Flat-Sneaker" transform="translate(166.273229, 179.482131) rotate(20.000000) translate(-166.273229, -179.482131) translate(140.838211, 162.807766)" fill="#E4E4E4">
                                                <path d="M2.41752135,20.6941728 C1.36179713,23.4278343 0.833935018,25.4521379 0.833935018,26.7670835 C0.833935018,28.2705161 1.08446094,30.4643982 1.58551279,33.3487298 C3.33005361,33.3487298 19.0085357,33.3487298 48.6209591,33.3487298 C49.8432436,29.3089541 49.1376701,27.1280092 46.5042385,26.8058951 C43.870807,26.4837809 41.6831707,26.1929377 39.9413296,25.9333653 L17.8598151,16.0918749 C17.5571446,15.9569779 17.2024261,16.0929853 17.0675291,16.3956558 C17.0652367,16.4007993 17.0630169,16.4059748 17.0608702,16.4111807 L15.5639069,20.0414986 L15.5639069,20.0414986 C13.1260381,21.1786546 11.1450166,21.7472325 9.62084239,21.7472325 C8.3007018,21.7472325 6.44435763,21.1790061 4.05180989,20.0425532 L4.0518106,20.0425517 C3.4531694,19.7581989 2.73736138,20.0129801 2.45300863,20.6116213 C2.44015308,20.6386857 2.42831569,20.6662222 2.41752135,20.6941728 Z" id="shoe"></path>
                                            </g>
                                            <polygon id="Leg" fill="#DA9770" points="88.3971119 23.3441109 45.2443419 126.914352 2.83188541 214.47426 12.8383566 214.47426 122.316324 23.3441109"></polygon>
                                            <g id="Accessories/Shoe/Flat-Sneaker" transform="translate(0.000000, 189.254042)" fill="#E4E4E4">
                                                <path d="M2.41752135,20.6941728 C1.36179713,23.4278343 0.833935018,25.4521379 0.833935018,26.7670835 C0.833935018,28.2705161 1.08446094,30.4643982 1.58551279,33.3487298 C3.33005361,33.3487298 19.0085357,33.3487298 48.6209591,33.3487298 C49.8432436,29.3089541 49.1376701,27.1280092 46.5042385,26.8058951 C43.870807,26.4837809 41.6831707,26.1929377 39.9413296,25.9333653 L17.8598151,16.0918749 C17.5571446,15.9569779 17.2024261,16.0929853 17.0675291,16.3956558 C17.0652367,16.4007993 17.0630169,16.4059748 17.0608702,16.4111807 L15.5639069,20.0414986 L15.5639069,20.0414986 C13.1260381,21.1786546 11.1450166,21.7472325 9.62084239,21.7472325 C8.3007018,21.7472325 6.44435763,21.1790061 4.05180989,20.0425532 L4.0518106,20.0425517 C3.4531694,19.7581989 2.73736138,20.0129801 2.45300863,20.6116213 C2.44015308,20.6386857 2.42831569,20.6662222 2.41752135,20.6941728 Z" id="shoe"></path>
                                            </g>
                                            <path d="M6.6619306,196.284695 L28.8964204,200.453286 C46.0880655,175.184942 118.035802,71.5762446 125.924188,23.3441109 L76.4252017,23.3441109 C50.0818679,58.2110599 23.0491189,170.598363 6.6619306,196.284695 Z" id="Pant" fill="#5C63AB"></path>
                                        </g>
                                        <g id="Body/Long-Sleeve-1" transform="translate(9.173285, 74.200924)">
                                            <path d="M41.2866908,68.3648961 L58.3754513,71.7546649 C41.1897871,103.773793 31.9734241,120.743949 30.7263623,122.665134 C27.9204733,126.9878 30.5384246,134.909984 31.5054848,139.081861 C25.438691,140.493713 27.8312481,131.364819 20.1538379,133.270849 C13.1462538,135.010585 7.20466748,139.475367 0.670382351,133.453896 C-0.132969611,132.713592 -0.721061231,130.39961 2.01797255,129.212779 C8.84190456,126.255952 18.9236894,120.719353 20.5584516,118.569822 C22.787742,115.638552 29.6971551,98.9035768 41.2866908,68.3648961 Z M210.308544,42.732369 C207.621661,46.6558218 204.971962,50.9035129 206.04557,52.2785496 C207.119178,53.6535863 210.229185,52.1359202 211.457854,54.3719996 C212.276967,55.8627191 207.034614,57.6459311 195.730796,59.7216355 L173.099842,77.0683199 L163.451264,64.710782 L193.668538,51.4438956 C198.9619,46.1705011 204.073395,42.1624774 209.003024,39.4198245 C210.477077,38.9506572 212.995427,38.8089162 210.308544,42.732369 Z" id="Skin" fill="#DA9770"></path>
                                            <path d="M101.140799,8.23575195 L108.216725,6.37542088 C125.191075,20.1806598 134.76568,56.0775851 145.615317,59.9908002 C155.873211,63.6905867 169.462456,58.0529998 185.55301,50.6383845 L191.634546,61.5569019 C177.969127,79.2026264 147.020472,95.8081239 133.297691,89.0746983 C111.357816,78.3093504 102.613413,33.7677466 101.140799,8.23575195 Z" id="Coat-Back" fill="#DB2721" transform="translate(146.387673, 48.491045) rotate(5.000000) translate(-146.387673, -48.491045) "></path>
                                            <path d="M73.3862816,95.0438799 C102.300273,95.0438799 123.568799,95.0438799 137.19186,95.0438799 C140.107449,95.0438799 139.558062,90.8349677 139.136596,88.7111275 C134.272367,64.1994449 115.284265,37.7770372 115.284265,2.88527399 L96.8797322,0 C81.6568196,24.4766394 76.3924725,54.6123384 73.3862816,95.0438799 Z" id="Shirt" fill="#DDE3E9"></path>
                                            <path d="M102.979632,-7.8985659e-14 C119.50199,56.3067855 124.056911,93.8241065 116.644397,112.551963 L116.644397,112.551963 L59.2093863,112.551963 C60.1181611,98.8470671 63.0322553,84.353556 67.0235823,70.2222584 C54.0164148,93.6811162 43.0823942,110.569974 34.2225626,120.889145 L20.8483755,118.270286 C29.4634185,64.8555027 54.4114333,25.4320739 95.69242,-1.64250787e-13 Z" id="Coat-Front" fill="#FF4133"></path>
                                        </g>
                                    </g>
                                </g>
                                <g id="persona-03-patient" opacity="0.702985491" transform="translate(751.000000, 93.000000)">
                                    <g transform="translate(114.000000, 113.000000) scale(-1, 1) translate(-114.000000, -113.000000) ">
                                        <g id="Head/Front" transform="translate(82.053097, 0.000000)">
                                            <g id="Head" transform="translate(2.690265, 4.708333)" fill="#915B3C">
                                                <path d="M25.6539287,6.14365726 C29.5513235,13.4086975 29.0882117,31.8370746 24.0511762,33.1355399 C22.0423694,33.6533774 17.7629641,32.3848439 13.4075752,29.7593908 L16.1415929,49.1011905 L0,49.1011905 L5.55722782,23.1990687 C2.45793805,19.5609753 0.360238631,15.1023942 0.710752225,10.1064065 C1.72064687,-4.28796027 21.7565339,-1.12138298 25.6539287,6.14365726 Z"></path>
                                            </g>
                                            <rect id="nose" fill="#794527" transform="translate(30.797754, 26.953841) rotate(-90.000000) translate(-30.797754, -26.953841) " x="29.4525155" y="23.5910093" width="2.69047619" height="6.72566372" rx="1.3452381"></rect>
                                            <path d="M24.1043158,16.113792 C24.475764,16.113792 24.7768822,16.4149102 24.7768822,16.7863584 L24.7768822,22.1674161 C24.7768822,22.5388642 24.475764,22.8399825 24.1043158,22.8399825 C23.7328677,22.8399825 23.4317494,22.5388642 23.4317494,22.1674161 L23.4317494,16.7863584 C23.4317494,16.4149102 23.7328677,16.113792 24.1043158,16.113792 Z M28.2477876,15.4702381 C28.6192358,15.4702381 28.920354,15.7713563 28.920354,16.1428045 L28.920354,21.5238622 C28.920354,21.8953104 28.6192358,22.1964286 28.2477876,22.1964286 C27.8763395,22.1964286 27.5752212,21.8953104 27.5752212,21.5238622 L27.5752212,16.1428045 C27.5752212,15.7713563 27.8763395,15.4702381 28.2477876,15.4702381 Z" id="eyes" fill="#13202F"></path>
                                            <ellipse id="Oval" stroke="#C4FCFF" cx="31.2743363" cy="21.1875" rx="3.69911504" ry="3.69940476"></ellipse>
                                            <line x1="27.5752212" y1="22.1964286" x2="26.5663717" y2="22.5327381" id="Line" stroke="#C4FCFF" stroke-linecap="square"></line>
                                            <path d="M18.8318584,23.2053571 L6.38938053,20.5003484 M34.9734513,21.860119 L31.2743363,21.1875" id="Line-3" stroke="#C4FCFF" stroke-linecap="round" stroke-linejoin="round"></path>
                                            <ellipse id="Oval-Copy" stroke="#C4FCFF" cx="22.5309735" cy="22.5327381" rx="3.69911504" ry="3.69940476"></ellipse>
                                        </g>
                                        <g id="Bottom/Skinny-Jeans-1" transform="translate(0.000000, 109.636905)">
                                            <g id="Objects/Seat/Cube-2" transform="translate(0.000000, 28.250000)" fill="#C5CFD6">
                                                <path d="M111.787611,0 C120.624167,6.22518934e-15 127.787611,7.163444 127.787611,16 L127.787611,67.4047619 C127.787611,76.2413179 120.624167,83.4047619 111.787611,83.4047619 L44.920354,83.4047619 C36.083798,83.4047619 28.920354,76.2413179 28.920354,67.4047619 L28.920354,16 C28.920354,7.163444 36.083798,1.623249e-15 44.920354,0 L111.787611,0 Z M104.955752,18.8333333 L51.7522124,18.8333333 C49.5430734,18.8333333 47.7522124,20.6241943 47.7522124,22.8333333 L47.7522124,22.8333333 L47.7522124,60.5714286 C47.7522124,62.7805676 49.5430734,64.5714286 51.7522124,64.5714286 L51.7522124,64.5714286 L104.955752,64.5714286 C107.164891,64.5714286 108.955752,62.7805676 108.955752,60.5714286 L108.955752,60.5714286 L108.955752,22.8333333 C108.955752,20.6241943 107.164891,18.8333333 104.955752,18.8333333 L104.955752,18.8333333 Z" id="Seat"></path>
                                            </g>
                                            <path d="M194.478595,108.291667 C181.218365,92.097808 172.246176,80.0924054 167.562029,72.2754588 C159.541632,58.8909483 152.97732,46.981206 150.905787,42.431738 C145.965951,31.5829482 162.278089,26.5029515 165.969897,31.5631869 C171.557594,39.2220542 183.490932,63.3223531 201.769912,103.864084 L194.478595,108.291667 Z" id="LegLower" fill="#B28B67"></path>
                                            <path d="M167.305974,103.583333 L142.62792,41.4580702 C137.349775,30.1330489 162.838917,22.6888371 166.717954,27.9592751 C175.52457,39.9248009 196.455861,87.1270644 199.079646,90.6919943 L167.305974,103.583333 Z" id="LegLower" fill="#2F3676"></path>
                                            <g id="Lower-Leg" transform="translate(141.355266, 66.252494) rotate(39.000000) translate(-141.355266, -66.252494) translate(122.859690, 17.823923)" fill="#915B3C">
                                                <path d="M3.23535484,92.7911832 C2.55832503,84.3157693 1.30048755,54.9756519 2.55900507,41.3951985 C2.92065254,37.4927208 3.30167242,33.719651 3.68564883,30.1801767 C4.82696259,19.6596069 24.3327974,19.9921688 22.7837896,29.9872374 C18.9261479,54.8789085 12.1362587,89.7631443 11.6496019,92.7773386 C10.9675315,97.0018608 3.66084697,98.1177165 3.23535484,92.7911832 Z" id="LegLower"></path>
                                            </g>
                                            <g id="Accessories/Shoe/Flat-Sneaker" transform="translate(120.725664, 94.166667) rotate(30.000000) translate(-120.725664, -94.166667) translate(100.212389, 80.714286)" fill="#E4E4E4">
                                                <path d="M1.54992505,17.7776442 C0.965019264,19.4431985 0.672566372,20.7156124 0.672566372,21.5948857 C0.672566372,22.8078104 0.874614863,24.5777691 1.27871185,26.9047619 C2.68567937,26.9047619 15.3303334,26.9047619 39.212674,26.9047619 C40.1984432,23.6455912 39.6294001,21.8860698 37.5055446,21.6261977 C35.3816891,21.3663256 33.6173662,21.131682 32.212576,20.9222667 L14.8889355,13.1986965 C14.3845129,12.9738048 13.7932868,13.2004093 13.5683951,13.7048319 C13.5645401,13.7134785 13.5608081,13.7221793 13.5572002,13.7309319 L12.5522495,16.1688842 L12.5522495,16.1688842 C10.5861148,17.0863077 8.98842622,17.5450195 7.75918378,17.5450195 C6.87692539,17.5450195 5.69772067,17.2302326 4.22156961,16.6006588 L4.22157328,16.6006502 C3.20554735,16.1673183 2.03061071,16.6396852 1.59727884,17.6557111 C1.58016899,17.6958283 1.56437595,17.7364944 1.54992505,17.7776442 Z" id="shoe"></path>
                                            </g>
                                            <g id="Accessories/Shoe/Flat-Sneaker" transform="translate(186.973451, 88.785714)" fill="#E4E4E4">
                                                <path d="M1.54992505,17.7776442 C0.965019264,19.4431985 0.672566372,20.7156124 0.672566372,21.5948857 C0.672566372,22.8078104 0.874614863,24.5777691 1.27871185,26.9047619 C2.68567937,26.9047619 15.3303334,26.9047619 39.212674,26.9047619 C40.1984432,23.6455912 39.6294001,21.8860698 37.5055446,21.6261977 C35.3816891,21.3663256 33.6173662,21.131682 32.212576,20.9222667 L14.8889355,13.1986965 C14.3845129,12.9738048 13.7932868,13.2004093 13.5683951,13.7048319 C13.5645401,13.7134785 13.5608081,13.7221793 13.5572002,13.7309319 L12.5522495,16.1688842 L12.5522495,16.1688842 C10.5861148,17.0863077 8.98842622,17.5450195 7.75918378,17.5450195 C6.87692539,17.5450195 5.69772067,17.2302326 4.22156961,16.6006588 L4.22157328,16.6006502 C3.20554735,16.1673183 2.03061071,16.6396852 1.59727884,17.6557111 C1.58016899,17.6958283 1.56437595,17.7364944 1.54992505,17.7776442 Z" id="shoe"></path>
                                            </g>
                                            <path d="M133.747955,44.561047 C113.23682,41.2192623 99.4981841,38.9341629 92.5320463,37.7057486 C72.6758078,34.2042838 66.8855597,23.5183473 70.3090635,0.203284752 L106.893845,0.203284752 C111.735253,1.60150166 131.964534,10.2490196 167.581687,26.1458386 C173.989915,29.3272218 172.796492,38.7075434 171.625182,41.7979445 C171.577412,41.9239828 160.774367,60.4368493 139.216047,97.3365438 L109.288153,78.2696453 L133.80416,46.8078202 C134.451604,45.503679 134.432869,44.7547546 133.747955,44.561047 Z" id="Leg-and-Butt" fill="#5C63AB"></path>
                                        </g>
                                        <g id="Body/Long-Sleeve-1" transform="translate(30.938053, 36.321429)">
                                            <path d="M23.0743587,65.257427 L37.1292417,65.3127026 C28.4509999,93.329753 23.766039,108.195424 23.0743587,109.909717 C21.5180781,113.766875 24.8113771,119.64126 26.2197225,122.798111 C21.6327885,124.850788 22.1215313,117.248887 16.3352375,119.941087 C11.0537769,122.398403 7.03618297,126.850894 0.934218371,123.0855 C0.18401768,122.622567 -0.638080054,120.87954 1.348212,119.517457 C6.29678989,116.124011 13.4279904,110.184869 14.3915279,108.229954 C15.7054834,105.564079 18.5997604,91.2399034 23.0743587,65.257427 L23.0743587,65.257427 Z M105.445766,64.7136777 L126.89947,80.4688363 C132.718157,82.0390508 137.579481,83.9926629 141.483444,86.3296725 C142.405627,87.1700461 143.520173,88.8719423 139.695654,88.577812 C135.871135,88.2836818 131.835088,88.1463171 131.307379,89.4509035 C130.779669,90.7554899 133.094061,92.3156322 132.027331,94.0758609 C131.316177,95.2493467 127.956402,92.3068746 121.948006,85.2484447 L100.703211,76.4380746 L105.445766,64.7136777 Z" id="Skin" fill="#915B3C"></path>
                                            <path d="M59.6777097,9.13416168 L65.3843959,7.63347348 C88.5052126,24.3237855 100.455757,59.2284055 128.458129,75.8227835 L122.80399,84.2393429 C76.5983107,82.5784017 61.4612847,40.0521602 59.6777097,9.13416168 Z" id="Coat-Back" fill="#E87613" transform="translate(94.067919, 45.936408) rotate(5.000000) translate(-94.067919, -45.936408) "></path>
                                            <path d="M37.6637168,79.3690476 C60.9827739,79.3690476 78.1357835,79.3690476 89.1227456,79.3690476 C91.4741608,79.3690476 91.0310814,75.9734226 90.6911701,74.2599716 C86.7681829,54.4846761 71.4543285,33.1678646 71.4543285,5.01822931 L56.6111222,2.69047619 C44.3338837,22.4374998 40.0882018,46.7500842 37.6637168,79.3690476 Z" id="Shirt" fill="#DDE3E9"></path>
                                            <path d="M55.4934724,2.69047619 C55.9951369,2.69047619 56.4546706,2.72187907 56.8720733,2.78468482 L61.5207135,3.05015246 C74.8525923,48.2370057 78.5294449,78.3849708 72.5512714,93.4940476 L72.5512714,93.4940476 L32.0489032,93.4942912 C29.649225,99.090288 27.352934,103.79854 25.1600304,107.619048 L25.1600304,107.619048 L14.1238938,107.619048 C13.0852264,74.0328378 21.069869,45.5265171 38.0778217,22.1000853 C35.9220601,21.4816751 34.2145122,20.0361578 32.9557522,17.7646696 C27.5305339,7.9746224 29.4898342,2.58447628 35.2876719,0.812704814 C41.0855097,-0.959066654 46.2559669,2.69047619 55.4934724,2.69047619 Z" id="Coat-Front" fill="#FF9B21"></path>
                                            <path d="M47.079646,93.4940476 L32.0489032,93.4942912 C34.8480952,86.9666373 37.7879653,79.2310377 40.8685135,70.2874924 C42.1423598,80.9453914 44.212716,88.6812415 47.079646,93.4940476 Z" id="Shade" fill-opacity="0.1" fill="#000000"></path>
                                        </g>
                                        <path d="M110.300885,8.70069522 C95.0395305,15.8848232 87.0884912,20.4394526 86.4477669,22.3645833 C85.4866804,25.2522794 80.0610136,7.57156227 91.6214049,3.19953846 C99.3283324,0.284855918 105.554826,2.11857484 110.300885,8.70069522 Z" id="Path" fill="#C21031"></path>
                                        <path d="M111.405956,10.1429836 L109.488019,6.44817679 C93.5002428,12.9550878 85.1170894,17.2979912 84.3385588,19.4768872 C84.1363099,20.0429271 85.6667763,23.6494691 86.689142,23.5416667 C88.9599906,23.3022191 97.1989287,18.8359914 111.405956,10.1429836 Z" id="Path-2" fill="#DB1B3F"></path>
                                    </g>
                                </g>
                                <g id="persona-02-customer" opacity="0.600725446" transform="translate(648.000000, 91.000000)">
                                    <g>
                                        <g id="Head/Front">
                                            <g id="Head" transform="translate(64.830325, 20.009238)">
                                                <path d="M20.1044326,4.80955359 C23.1587372,10.4969803 22.7958064,24.9236098 18.8483899,25.9401116 C17.2741774,26.3454881 13.9206499,25.3524885 10.5075287,23.2972787 L12.6498195,38.4387991 L0,38.4387991 L4.35465884,18.1608649 C1.92604319,15.312879 0.282327152,11.8226623 0.557001245,7.91178634 C1.34843398,-3.35682377 17.0501281,-0.877873117 20.1044326,4.80955359 Z" fill="#EAAB86"></path>
                                                <rect id="nose" fill="#DA9770" transform="translate(21.610108, 17.903002) rotate(-90.000000) translate(-21.610108, -17.903002) " x="20.5569905" y="15.2676232" width="2.10623557" height="5.27075812" rx="1.05311778"></rect>
                                                <path d="M16.364605,9.98186532 C16.6557009,9.98186532 16.8916808,10.2178452 16.8916808,10.5089411 L16.8916808,14.7203784 C16.8916808,15.0114744 16.6557009,15.2474542 16.364605,15.2474542 C16.073509,15.2474542 15.8375292,15.0114744 15.8375292,14.7203784 L15.8375292,10.5089411 C15.8375292,10.2178452 16.073509,9.98186532 16.364605,9.98186532 Z M19.6117548,9.47806005 C19.9028507,9.47806005 20.1388306,9.71403993 20.1388306,10.0051359 L20.1388306,14.2165731 C20.1388306,14.5076691 19.9028507,14.743649 19.6117548,14.743649 C19.3206589,14.743649 19.084679,14.5076691 19.084679,14.2165731 L19.084679,10.0051359 C19.084679,9.71403993 19.3206589,9.47806005 19.6117548,9.47806005 Z" id="eyes" fill="#13202F" transform="translate(17.988180, 12.362757) scale(-1, 1) translate(-17.988180, -12.362757) "></path>
                                            </g>
                                            <path d="M77.7246812,18.2638303 C76.0574717,17.9906943 71.5684363,17.8029057 70.740578,17.8030269 C70.2115375,17.8030269 69.6382187,17.9237741 69.3248835,17.4384818 C69.0682873,17.0410827 69.1622879,16.3689716 69.0857083,15.9078044 C68.9967888,15.3720795 68.8704869,14.8432648 68.7427332,14.3157836 C68.3791918,12.8148082 67.8294638,11.3868145 67.0602803,10.046108 C65.6170026,7.53078302 63.5026551,5.56051786 60.8333777,4.41402527 C57.8857279,3.148119 54.5502199,2.85825289 51.3796061,3.11502261 C47.9866331,3.3897347 44.915222,4.50870759 41.7117019,5.56173018 C38.6589215,6.56516882 35.4614504,6.96014321 32.2685765,6.4701228 C29.0516278,5.97646542 26.6209206,4.23460166 23.9074859,2.58135862 C21.1296904,0.888836355 17.9552053,-0.218134551 14.6713553,0.0363317653 C11.6059931,0.27394681 8.78077387,1.5383983 6.24602491,3.22752606 C3.87447643,4.80790858 1.91764346,6.70931386 0.812864567,9.38539269 C-0.375631698,12.2640505 -0.374542888,15.4238456 1.5798705,17.9679026 C4.41271136,21.6555426 9.67178313,22.6091549 14.0471044,22.5143513 C16.577861,22.4596756 19.0633716,21.9981447 21.452704,21.158612 C24.639166,20.0389117 27.3927657,18.1411434 30.3738057,16.6013737 C31.7728051,15.87883 33.2188654,15.2853985 34.7346094,14.8579339 C36.2054704,14.4429562 37.6541921,14.2526217 38.9859274,15.1402836 C40.3947261,16.079348 41.6571405,17.0018035 43.2688208,17.5896583 C44.8149305,18.1536303 46.4526213,18.4690764 48.0998694,18.456347 C51.3048412,18.4316157 54.4642039,17.4339962 57.5769899,16.7657645 C60.1153682,16.2209471 62.8313435,15.6779483 65.4192021,16.2016712 C66.4990594,16.4202528 68.0763817,16.8714789 68.4664175,17.992634 C61.9019839,19.1811941 59.3238096,27.291626 61.1744231,33.2454589 C62.1732245,36.4589599 68.1771571,40.2155087 70.511565,38.5261226 C71.9904797,37.455848 71.0926265,36.0507712 70.511565,35.1232239 C69.3988015,33.3469302 69.0180811,31.0652197 71.0771412,29.8285303 C72.8532318,28.7619297 74.7206686,31.2948231 74.7559944,31.2920348 C75.2441441,31.2536042 79.4621815,28.8704582 82.3683325,25.3928439 C85.2352612,25.5626258 85.6702158,23.6741007 84.9856494,22.1296421 C84.3010829,20.5851835 80.0282396,18.6414685 77.7246812,18.2638303 Z" id="hair" fill="#D16004"></path>
                                        </g>
                                        <g id="Bottom/Skinny-Jeans-1" transform="translate(5.797834, 87.408776)">
                                            <path d="M96.6627237,9.6327779 C86.5929183,17.8439257 90.4583966,89.8790438 89.7864303,90.7856334 C89.4877787,91.1885621 73.5251489,94.6109421 41.8985411,101.052774 L43.2663665,106.628592 C80.264078,104.808783 99.8404946,102.525785 101.995616,99.7795999 C105.081134,95.8478489 108.88677,73.8527229 113.412525,33.7942219 L96.6627237,9.6327779 Z" id="Leg" fill="#DA9770" transform="translate(77.655533, 58.130685) rotate(-55.000000) translate(-77.655533, -58.130685) "></path>
                                            <path d="M47.2334496,95.1872411 L49.6423375,104.167594 C77.223384,107.348204 95.4030034,103.435371 101.799786,97.348698 C106.064308,93.2909162 109.879798,71.3555779 113.246256,31.5426831 L95.3281279,5.95294465 C71.3569415,24.0389742 85.6777064,83.2877548 85.0655273,84.6430054 C84.4533481,85.9982559 69.909078,87.0634055 47.2334496,95.1872411 Z" id="Pant" fill="#2F3676" transform="translate(80.239853, 55.626642) rotate(-55.000000) translate(-80.239853, -55.626642) "></path>
                                            <g id="Accessories/Shoe/Flat-Sneaker" transform="translate(105.090439, 113.357135) rotate(20.000000) translate(-105.090439, -113.357135) translate(89.014627, 102.825958)" fill="#E4E4E4">
                                                <path d="M1.05365687,14.3912344 C0.702602832,15.4650405 0.527075812,16.3031378 0.527075812,16.9055264 C0.527075812,17.8550628 0.685416873,19.2406726 1.00209899,21.0623557 C2.10470921,21.0623557 12.0140529,21.0623557 30.73013,21.0623557 C31.5026561,18.5109184 31.0567092,17.1334795 29.3922893,16.930039 C27.7278694,16.7265985 26.3452075,16.542908 25.2443036,16.3789675 L11.8708496,10.4228622 C11.3663384,10.1981692 10.7752017,10.4250066 10.5505087,10.9295177 C10.5467612,10.9379321 10.5431301,10.9463979 10.5396165,10.9549126 L9.8369282,12.6577886 L9.8369282,12.6577886 C8.29611068,13.3759924 7.04403647,13.7350942 6.08070558,13.7350942 C5.46728967,13.7350942 4.67070199,13.5411231 3.69094254,13.1531809 L3.69094294,13.1531799 C2.66394969,12.7465351 1.50175645,13.249427 1.0951117,14.2764202 C1.08012843,14.3142609 1.06630372,14.3525501 1.05365687,14.3912344 Z" id="shoe"></path>
                                            </g>
                                            <polygon id="Leg" fill="#DA9770" points="55.8700361 14.743649 28.595991 80.1564325 1.78984965 135.457427 8.11428598 135.457427 77.3081531 14.743649"></polygon>
                                            <g id="Accessories/Shoe/Flat-Sneaker" transform="translate(0.000000, 119.528868)" fill="#E4E4E4">
                                                <path d="M1.05365687,14.3912344 C0.702602832,15.4650405 0.527075812,16.3031378 0.527075812,16.9055264 C0.527075812,17.8550628 0.685416873,19.2406726 1.00209899,21.0623557 C2.10470921,21.0623557 12.0140529,21.0623557 30.73013,21.0623557 C31.5026561,18.5109184 31.0567092,17.1334795 29.3922893,16.930039 C27.7278694,16.7265985 26.3452075,16.542908 25.2443036,16.3789675 L11.8708496,10.4228622 C11.3663384,10.1981692 10.7752017,10.4250066 10.5505087,10.9295177 C10.5467612,10.9379321 10.5431301,10.9463979 10.5396165,10.9549126 L9.8369282,12.6577886 L9.8369282,12.6577886 C8.29611068,13.3759924 7.04403647,13.7350942 6.08070558,13.7350942 C5.46728967,13.7350942 4.67070199,13.5411231 3.69094254,13.1531809 L3.69094294,13.1531799 C2.66394969,12.7465351 1.50175645,13.249427 1.0951117,14.2764202 C1.08012843,14.3142609 1.06630372,14.3525501 1.05365687,14.3912344 Z" id="shoe"></path>
                                            </g>
                                            <path d="M4.21057086,123.969281 L18.2635384,126.602076 C29.1292535,110.643121 74.6027148,45.2060492 79.5884477,14.743649 L48.3033743,14.743649 C31.653475,36.7648799 14.5678414,107.746335 4.21057086,123.969281 Z" id="Pant" fill="#5C63AB"></path>
                                        </g>
                                        <g id="Body/Long-Sleeve-1" transform="translate(5.797834, 46.863741)">
                                            <path d="M26.0946184,43.1778291 L36.8953069,45.3187357 C26.0333719,65.5413428 20.2083113,76.2593362 19.4201251,77.4727162 C17.6467061,80.202821 19.3013419,85.2063056 19.9125575,87.8411751 C16.0781337,88.7328713 17.5903127,82.9672544 12.7379235,84.1710628 C8.30888767,85.2698433 4.55359936,88.0897055 0.423704862,84.2866713 C-0.0840413991,83.8191106 -0.45573567,82.3576482 1.27542854,81.6080711 C5.5883899,79.7406014 11.9604271,76.2438019 12.9936534,74.8862032 C14.4026421,73.034875 18.7696305,62.4654169 26.0946184,43.1778291 Z M132.922283,26.9888646 L132.614297,27.4412117 C131.02973,29.7853528 129.590503,32.2022201 130.227936,33.0180313 C130.906493,33.8864756 132.872126,32.9279496 133.648687,34.3402102 C134.166395,35.2817173 130.853046,36.4079565 123.708642,37.7189277 L109.405095,48.6747284 L103.306859,40.8699676 L122.405223,32.4908814 C125.750811,29.1603165 128.981453,26.6289331 132.097149,24.8967313 C133.028802,24.6004151 134.620486,24.5108945 132.922283,26.9888646 Z" id="Skin" fill="#DA9770"></path>
                                            <path d="M63.9261594,5.20322196 L68.398439,4.02798963 C79.1262108,12.7464641 85.1762395,35.4179519 92.0333939,37.8890404 C98.5165559,40.2253546 107.105606,36.6642163 117.27563,31.980639 L121.118919,38.876342 C112.48125,50.0216118 92.9200784,60.5105764 84.2471191,56.2584062 C70.3808601,49.4600698 64.8558874,21.3287223 63.9261594,5.20322196 Z" id="Coat-Back" fill="#199B5D" transform="translate(92.522539, 30.626832) rotate(5.000000) translate(-92.522539, -30.626832) "></path>
                                            <path d="M46.3826715,60.0277136 C64.6573154,60.0277136 78.0997604,60.0277136 86.7100065,60.0277136 C88.5527601,60.0277136 88.2055283,57.3694533 87.9391471,56.0280805 C84.8647863,40.5470178 72.8636477,23.8591814 72.8636477,1.82227831 L61.2313459,0 C51.6099379,15.4589302 48.2826882,34.4920032 46.3826715,60.0277136 Z" id="Shirt" fill="#DDE3E9"></path>
                                            <path d="M65.0866935,0 C75.5293961,35.5621803 78.4082644,59.2573304 73.7232983,71.0854503 L73.7232983,71.0854503 L37.4223827,71.0854503 C37.9966848,62.4308583 39.8380867,53.2783239 42.3602356,44.354401 C34.1392279,59.1685904 27.2291532,69.8341472 21.6298448,76.3510393 L13.1768953,74.697023 C18.6219009,40.9613701 34.3899102,16.0623624 60.4809235,-4.97379915e-14 Z" id="Coat-Front" fill="#2EB374"></path>
                                        </g>
                                    </g>
                                </g>
                                <g id="persona-04-student" opacity="0.795107887" transform="translate(488.500000, 181.000000) scale(-1, 1) translate(-488.500000, -181.000000) translate(422.000000, 54.000000)">
                                    <g id="persona-04-shopper">
                                        <g id="Head/Front" transform="translate(34.833333, 0.000000)">
                                            <path d="M20.2666667,39.7955015 C27.504994,39.7955015 30.1374817,31.3804293 34.2497918,26.762466 C37.1920654,23.458408 42.213617,24.4436219 43.7,19.8180125 C47.4376436,8.18650225 37.4338688,0 24.3833333,0 C11.3327979,0 2.53333333,7.17980658 0.633333333,17.9729762 C-1.26666667,28.7661458 7.21613121,39.7955015 20.2666667,39.7955015 Z" id="Hair-Back" fill="#0E0301"></path>
                                            <g id="Head" transform="translate(15.833333, 11.070218)" fill="#B28B67">
                                                <path d="M24.1574495,5.61747933 C27.8274963,12.2603 27.3913994,29.1103655 22.6481909,30.2976228 C20.7565871,30.7711041 16.7268872,29.6112483 12.6256132,27.2107122 L15.2,44.8958838 L0,44.8958838 L5.2331563,21.2122819 C2.3146035,17.8857548 0.339220937,13.808991 0.669291678,9.24083605 C1.62027581,-3.92071483 20.4874027,-1.02534133 24.1574495,5.61747933 Z"></path>
                                            </g>
                                            <path d="M40.9026683,16.7249632 C38.0048277,17.2532185 32.1777513,19.9330591 27.5171946,23.7795083 L27.4748112,23.8158319 C26.9223215,23.5317981 26.2891814,23.37046 25.6162233,23.37046 C23.4627573,23.37046 21.7170282,25.0225618 21.7170282,27.0605327 C21.7170282,27.8921238 22.0076984,28.6594662 22.4981336,29.2765303 C21.5747377,30.7554722 20.9440886,32.3093165 20.7373846,33.9067076 C17.5351222,33.9067076 5.84793417,22.1404358 17.4906338,11.0702179 C29.1333333,-4.17443857e-14 45.9584755,15.8033264 40.9026683,16.7249632 Z" id="Hair" fill="#0E0301"></path>
                                        </g>
                                        <path d="M76.9966425,27.6288145 L77.5366909,27.6288145 C78.0668842,27.6288145 78.4966909,28.0586212 78.4966909,28.5888145 L78.4966909,33.0021479 C78.4966909,33.5323412 78.0668842,33.9621479 77.5366909,33.9621479 L76.9966425,33.9621479 C76.4664491,33.9621479 76.0366425,33.5323412 76.0366425,33.0021479 L76.0366425,28.5888145 C76.0366425,28.0586212 76.4664491,27.6288145 76.9966425,27.6288145 Z" id="nose" fill="#8C6D50" transform="translate(77.266667, 30.795481) rotate(-90.000000) translate(-77.266667, -30.795481) "></path>
                                        <path d="M70.4836795,21.4988479 C70.7487761,21.4988479 70.9636795,21.7137512 70.9636795,21.9788479 L70.9636795,27.1689689 C70.9636795,27.4340656 70.7487761,27.6489689 70.4836795,27.6489689 L70.1770128,27.6489689 C69.9119161,27.6489689 69.6970128,27.4340656 69.6970128,27.1689689 L69.6970128,21.9788479 C69.6970128,21.7137512 69.9119161,21.4988479 70.1770128,21.4988479 L70.4836795,21.4988479 Z M74.3854487,20.9104116 C74.6505454,20.9104116 74.8654487,21.1253149 74.8654487,21.3904116 L74.8654487,26.5805327 C74.8654487,26.8456294 74.6505454,27.0605327 74.3854487,27.0605327 L74.0787821,27.0605327 C73.8136854,27.0605327 73.5987821,26.8456294 73.5987821,26.5805327 L73.5987821,21.3904116 C73.5987821,21.1253149 73.8136854,20.9104116 74.0787821,20.9104116 L74.3854487,20.9104116 Z" id="eyes" fill="#13202F"></path>
                                        <path d="M122.693799,121.914438 C123.396197,129.023885 123.219,134.101638 122.162207,137.1477" id="Path" stroke="#F9BE00" stroke-width="1.92" stroke-linecap="round" stroke-linejoin="round"></path>
                                        <g id="Bottom/Skinny-Jeans-1" transform="translate(17.733333, 107.012107)">
                                            <polygon id="Leg" fill="#997659" points="27.8666667 0 51.6995305 75.6613545 63.2447643 140.006463 72.2970247 140.006463 60.0976169 0"></polygon>
                                            <path d="M19.3405606,0 C20.9593465,41.5421503 19.0542543,62.9703437 18.6919506,66.7446286 C18.329647,70.5189136 13.3685243,94.9915794 1.62366866,141.27349 L11.2695285,138.056503 C29.8311777,95.6091416 36.156326,73.5484985 38.2852067,67.9746528 C40.4140873,62.4008072 46.0682886,39.7425896 55.2478106,0 L19.3405606,0 Z" id="Leg" fill="#B28B67"></path>
                                            <g id="Accessories/Shoe/Flat-Sneaker" transform="translate(0.000000, 122.387409)" fill="#E4E4E4">
                                                <path d="M1.81508856,15.318231 C1.02725174,17.3081264 0.633333333,18.7838415 0.633333333,19.7453762 C0.633333333,20.8544191 0.823595663,22.4727884 1.20412032,24.6004843 C2.52901474,24.6004843 14.436064,24.6004843 36.925268,24.6004843 C37.853534,21.6204476 37.3176851,20.0116216 35.3177211,19.7740065 C33.3177572,19.5363913 31.6563532,19.3218439 30.3335091,19.1303641 L13.5792007,11.8772795 C13.3359221,11.7719621 13.0533292,11.8838018 12.9480118,12.1270804 C12.9475615,12.1281204 12.947115,12.129162 12.9466722,12.1302051 L11.820035,14.7840885 L11.820035,14.7840885 C9.96859144,15.6229386 8.46410136,16.0423637 7.30656472,16.0423637 C6.30980335,16.0423637 4.91053669,15.6280516 3.10876474,14.7994275 L3.10875344,14.7994521 C2.62707202,14.5779297 2.0570127,14.7888303 1.83549031,15.2705117 C1.82826093,15.2862314 1.82145786,15.3021436 1.81508856,15.318231 Z" id="shoe"></path>
                                            </g>
                                            <g id="Accessories/Shoe/Flat-Sneaker" transform="translate(59.533333, 122.387409)" fill="#E4E4E4">
                                                <path d="M1.81508856,15.318231 C1.02725174,17.3081264 0.633333333,18.7838415 0.633333333,19.7453762 C0.633333333,20.8544191 0.823595663,22.4727884 1.20412032,24.6004843 C2.52901474,24.6004843 14.436064,24.6004843 36.925268,24.6004843 C37.853534,21.6204476 37.3176851,20.0116216 35.3177211,19.7740065 C33.3177572,19.5363913 31.6563532,19.3218439 30.3335091,19.1303641 L13.5792007,11.8772795 C13.3359221,11.7719621 13.0533292,11.8838018 12.9480118,12.1270804 C12.9475615,12.1281204 12.947115,12.129162 12.9466722,12.1302051 L11.820035,14.7840885 L11.820035,14.7840885 C9.96859144,15.6229386 8.46410136,16.0423637 7.30656472,16.0423637 C6.30980335,16.0423637 4.91053669,15.6280516 3.10876474,14.7994275 L3.10875344,14.7994521 C2.62707202,14.5779297 2.0570127,14.7888303 1.83549031,15.2705117 C1.82826093,15.2862314 1.82145786,15.3021436 1.81508856,15.318231 Z" id="shoe"></path>
                                            </g>
                                            <polygon id="Bottom" fill="#69A1AC" points="24.7 0 34.8333333 38.5486637 65.7845347 38.5486637 61.1695845 0"></polygon>
                                            <path d="M19,0 C15.6657781,9.70522689 15.0324448,22.5547815 17.1,38.5486637 L48.6845347,38.5486637 L57.3695845,0 L19,0 Z" id="Bottom" fill="#89C5CC"></path>
                                        </g>
                                        <g id="Body/Long-Sleeve-1" transform="translate(0.000000, 42.435835)">
                                            <path d="M21.7283544,57.2083594 L34.9633692,57.2589009 C26.7913583,82.8764109 22.3796867,96.4689012 21.7283544,98.0363719 C20.2628569,101.563181 23.3640468,106.93445 24.6902387,109.82093 C20.3708759,111.697804 20.8311086,104.746973 15.3823487,107.208598 C10.4089733,109.455455 6.62573896,113.52661 0.8797223,110.083705 C0.173283315,109.660421 -0.600858718,108.066677 1.2695663,106.82125 C5.92947715,103.718438 12.644691,98.2879584 13.5520221,96.5004739 C14.7893302,94.0629195 17.5147743,80.965548 21.7283544,57.2083594 L21.7283544,57.2083594 Z M101.361459,54.8114235 L119.302465,71.8072973 C124.522637,73.9695635 128.799824,76.3571421 132.134026,78.9700329 C132.883838,79.8483145 133.700131,81.5311473 130.172302,80.7781037 C126.644473,80.0250601 122.89885,79.3870411 122.235801,80.5011284 C121.572752,81.6152156 123.52648,83.3223931 122.301083,84.7804467 C121.484152,85.7524823 118.736748,82.6606271 114.058872,75.504881 L95.4025984,64.8237931 L101.361459,54.8114235 Z" id="Skin" fill="#B28B67"></path>
                                            <path d="M55.8510226,5.74689287 L61.2271935,4.36088817 C72.6135559,26.3245218 90.8238847,45.5932282 115.85818,62.1670071 L99.9975737,84.5797141 C74.2754623,60.1126938 57.4568676,34.0190822 55.8510226,5.74689287 Z" id="Coat-Back" fill="#191847" transform="translate(85.854601, 44.470301) rotate(5.000000) translate(-85.854601, -44.470301) "></path>
                                            <path d="M35.4666667,70.1113801 L84.2333333,70.1113801 C72.9352174,43.4353203 67.2861594,20.7743239 67.2861594,2.12839103 L52.5756651,0 C41.0145988,18.0557756 37.7497233,40.2860912 35.4666667,70.1113801 Z" id="Shirt" fill="#DDE3E9"></path>
                                            <path d="M53.230243,0 C54.379254,0.0384217348 56.1293453,0.107646119 58.4805169,0.207673152 L58.4805169,0.207673152 L62.0351002,10.0719795 C62.4110963,22.0988751 64.6068563,46.3363149 68.6223803,82.7842988 L68.6223803,82.7842988 L36.6548446,82.7840862 C36.7386465,85.3014676 36.876826,87.8423655 37.069383,90.4067797 L37.069383,90.4067797 L13.3,90.4067797 C16.8554804,51.4543503 29.8396503,21.3187571 52.2525097,3.55271368e-14 L52.2525097,3.55271368e-14 L52.264,0.01 L52.2700024,0 Z" id="Coat-Front" fill="#191847"></path>
                                            <path d="M45.6,83.0266344 L36.663065,83.0260671 C36.2718828,71.737322 36.9728784,60.9209057 38.7660517,50.5768182 C39.6766128,66.2678825 41.9543848,77.0841315 45.6,83.0266344 Z" id="Shade" fill-opacity="0.1" fill="#000000"></path>
                                            <polygon id="Light" fill-opacity="0.2" fill="#FFFFFF" points="43.770236 63.9612591 59.5333333 56.8451211 59.5333333 63.9612591"></polygon>
                                        </g>
                                        <path d="M105.249643,131.032135 L125.450787,130.922562 C126.511158,130.916811 127.375421,131.771749 127.381173,132.83212 C127.381211,132.839158 127.38121,132.846197 127.381171,132.853235 L127.193246,166.569491 C127.187382,167.621624 126.335824,168.473054 125.28369,168.478761 L105.082546,168.588334 C104.022175,168.594085 103.157912,167.739147 103.152161,166.678776 C103.152122,166.671737 103.152123,166.664699 103.152162,166.65766 L103.340087,132.941405 C103.345952,131.889271 104.197509,131.037842 105.249643,131.032135 Z" id="Rectangle" fill="#F9BE00" transform="translate(115.266667, 149.755448) rotate(11.000000) translate(-115.266667, -149.755448) "></path>
                                        <path d="M114.316667,131.903129 C113.168593,119.865249 114.863383,113.846308 119.401035,113.846308" id="Path-4" stroke="#F9BE00" stroke-width="1.92" stroke-linecap="round" stroke-linejoin="round"></path>
                                    </g>
                                </g>
                                <g id="persona-01-audience" opacity="0.896949405" transform="translate(191.500000, 227.500000) scale(-1, 1) translate(-191.500000, -227.500000) ">
                                    <g>
                                        <g id="Head" transform="translate(131.786168, 53.799468) scale(-1, 1) rotate(12.000000) translate(-131.786168, -53.799468) translate(101.935189, 6.172943)">
                                            <g transform="translate(4.728395, 8.251295)" fill="#EAAB86">
                                                <path d="M45.0891968,10.7666826 C51.9392354,23.4985748 51.1252727,55.7940754 42.2722081,58.0696197 C38.7415875,58.9771115 31.2202813,56.7540928 23.5653792,52.1531424 L28.3703704,86.0492228 L0,86.0492228 L9.76668536,40.6552983 C4.31975714,34.2797278 0.633178446,26.4664002 1.249214,17.7113511 C3.024199,-7.51459679 38.2391581,-1.96520966 45.0891968,10.7666826 Z"></path>
                                            </g>
                                            <path d="M12.3152685,54.5852892 C8.75450775,38.7887014 -1.38951843,28.0206968 0.159717696,20.9602976 C1.19254178,16.2533648 3.94532759,13.3262885 8.41807511,12.1790688 C10.7313378,2.84728727 18.1920845,-1.12188313 30.8003154,0.271557596 C49.7126616,2.36171868 61.255705,10.1936016 56.2708351,27.4271617 C51.6885673,27.4271617 46.1567909,25.7746734 38.5074937,28.6059182 C36.0804026,29.5042608 34.3444759,32.2900999 33.2997136,36.9634356 L29.8430265,36.9634356 C26.488166,31.4174638 23.1802521,29.3794705 19.9192847,30.8494557 C16.6583173,32.3194409 15.9170464,35.8900409 17.695472,41.5612556 L15.9927041,54.5852892 L12.3152685,54.5852892 Z" id="Hair" fill="#E87613"></path>
                                            <path d="M52.6785733,41.9667942 L54.2255992,41.9667942 C55.1004182,41.9667942 55.8095992,42.6759752 55.8095992,43.5507942 L55.8095992,52.2037819 C55.8095992,53.0786009 55.1004182,53.7877819 54.2255992,53.7877819 L52.6785733,53.7877819 C51.8037542,53.7877819 51.0945733,53.0786009 51.0945733,52.2037819 L51.0945733,43.5507942 C51.0945733,42.6759752 51.8037542,41.9667942 52.6785733,41.9667942 Z" id="nose" fill="#DA9770" transform="translate(53.452086, 47.877288) rotate(-90.000000) translate(-53.452086, -47.877288) "></path>
                                            <path d="M42.9456543,31.8264249 C43.3830638,31.8264249 43.7376543,32.1810153 43.7376543,32.6184249 L43.7376543,42.8219896 C43.7376543,43.2593992 43.3830638,43.6139896 42.9456543,43.6139896 L42.1654568,43.6139896 C41.7280473,43.6139896 41.3734568,43.2593992 41.3734568,42.8219896 L41.3734568,32.6184249 C41.3734568,32.1810153 41.7280473,31.8264249 42.1654568,31.8264249 L42.9456543,31.8264249 Z M50.2281964,30.6986047 C50.6656059,30.6986047 51.0201964,31.0531952 51.0201964,31.4906047 L51.0201964,41.6941695 C51.0201964,42.131579 50.6656059,42.4861695 50.2281964,42.4861695 L49.4479989,42.4861695 C49.0105894,42.4861695 48.6559989,42.131579 48.6559989,41.6941695 L48.6559989,31.4906047 C48.6559989,31.0531952 49.0105894,30.6986047 49.4479989,30.6986047 L50.2281964,30.6986047 Z" id="eyes" fill="#13202F"></path>
                                        </g>
                                        <g id="Bottom" transform="translate(199.416480, 313.489690) scale(-1, 1) translate(-199.416480, -313.489690) translate(15.832959, 172.098446)">
                                            <polygon id="Leg" fill="#DA9770" points="154.854938 0 242.692457 146.433274 308.545325 270.230264 322.729449 270.230264 212.392044 6.00031722e-13"></polygon>
                                            <g id="Right-Shoe" transform="translate(297.888889, 256.968912)" fill="#E4E4E4">
                                                <path d="M2.29102264,6.74290252 C0.763674215,10.6683473 0,13.5701779 0,15.4483944 C0,17.5740297 0.35511926,20.6758602 1.06535778,24.753886 C3.53823577,24.753886 25.7624066,24.753886 67.7378703,24.753886 C69.4704526,19.0422301 68.4703056,15.9586908 64.7374295,15.5032682 C61.0045533,15.0478457 57.9035897,14.6366356 55.4345386,14.2696379 L24.0780753,0.330294377 C23.6783803,0.152612147 23.2103236,0.332589081 23.0326413,0.732284108 C23.0298216,0.738627061 23.0270854,0.745006809 23.0244334,0.751421699 L20.8796624,5.93939442 L20.8796624,5.93939442 C17.4239954,7.5471677 14.6159072,8.35105434 12.4553978,8.35105434 C10.5634546,8.35105434 7.89457781,7.52983547 4.44876734,5.88739774 L4.44876804,5.88739626 C3.65906787,5.51098747 2.71374977,5.84602633 2.33734098,6.63572651 C2.32058968,6.67087049 2.30513974,6.70662011 2.29102264,6.74290252 Z" id="shoe"></path>
                                            </g>
                                            <path d="M290.256144,250.406644 L317.609976,242.155348 C305.625517,206.42958 290.93686,167.114682 273.544007,124.210654 C256.151153,81.3066258 237.471875,39.9030745 217.506173,0 L140.249012,0 C162.44658,50.475557 185.978978,96.3390799 210.846207,137.590569 C235.713436,178.842057 262.183415,216.447416 290.256144,250.406644 Z" id="Pant" fill="#191847"></path>
                                            <path d="M149.08231,0 C140.792098,51.4576578 124.802549,117.200772 123.293567,119.229624 C122.287579,120.582193 86.0717453,132.683421 14.646067,155.53331 L17.7100089,168.00573 C102.884963,155.751187 147.764899,146.243608 152.349819,139.482994 C159.227199,129.342072 193.566883,49.2285682 206.867284,0 L149.08231,0 Z" id="Leg" fill="#DA9770"></path>
                                            <path d="M39.7533996,144.751858 L45.1501996,164.839592 C108.856102,170.411198 147.890116,166.385362 162.252241,152.762085 C176.614365,139.138807 192.982948,88.2181123 211.357989,0 L137.688672,0 C126.046679,72.2387636 119.538047,109.874397 118.162777,112.9069 C116.787506,115.939404 90.6510472,126.554389 39.7533996,144.751858 Z" id="Pant" fill="#2F3676"></path>
                                            <g id="Accessories/Shoe/Flat-Sneaker" transform="translate(30.143519, 181.528497) rotate(80.000000) translate(-30.143519, -181.528497) translate(-5.910494, 157.953368)" fill="#E4E4E4">
                                                <path d="M3.47312141,29.1392756 C1.94577298,33.0647204 1.18209877,35.966551 1.18209877,37.8447674 C1.18209877,39.9704027 1.53721803,43.0722333 2.24745655,47.1502591 C4.72033453,47.1502591 26.9445054,47.1502591 68.9199691,47.1502591 C70.6525514,41.4386031 69.6524044,38.3550638 65.9195282,37.8996413 C62.1866521,37.4442187 59.0856884,37.0330086 56.6166373,36.6660109 L25.2601741,22.7266674 C24.8604791,22.5489852 24.3924223,22.7289621 24.2147401,23.1286572 C24.2119204,23.1350001 24.2091842,23.1413799 24.2065322,23.1477948 L22.0617612,28.3357675 L22.0617612,28.3357675 C18.6060942,29.9435408 15.7980059,30.7474274 13.6374965,30.7474274 C11.7455534,30.7474274 9.07667658,29.9262085 5.6308661,28.2837708 L5.63086681,28.2837693 C4.84116663,27.9073605 3.89584854,28.2423994 3.51943974,29.0320996 C3.50268844,29.0672435 3.48723851,29.1029932 3.47312141,29.1392756 Z" id="shoe"></path>
                                            </g>
                                        </g>
                                        <g id="Body" transform="translate(170.662234, 174.951644) scale(-1, 1) rotate(21.000000) translate(-170.662234, -174.951644) translate(29.616358, 67.791964)">
                                            <path d="M59.0692293,87.7580465 L84.9541091,87.8549163 C56.5706359,151.547616 41.7710526,184.896104 40.5553594,187.90038 C37.8200496,194.660001 43.6083329,204.954787 46.0836326,210.487129 C38.021664,214.08442 38.8806754,200.762183 28.710719,205.480231 C19.4280544,209.786645 12.3667545,217.589581 1.64197681,210.990775 C0.32342841,210.17949 -1.12148581,207.124858 2.36960962,204.737824 C11.0672015,198.790852 23.6009583,188.38258 25.2944662,184.956617 C27.6038669,180.284704 38.8621212,147.88518 59.0692293,87.7580465 L59.0692293,87.7580465 Z M278.612586,65.2031465 C273.382931,69.5505692 268.076708,74.3597265 269.008474,76.6798701 C269.940241,79.0000137 274.803754,78.1367649 275.609446,81.7053431 C276.146573,84.0843951 268.253388,84.4709674 251.929888,82.8650598 L214.059024,97.8367876 L205.685185,76.9855166 L252.357844,70.6371761 C261.694269,65.4587358 270.283328,61.9530223 278.125019,60.1200356 C280.331753,60.0557877 283.842241,60.8557238 278.612586,65.2031465 Z" id="Skin" fill="#DA9770"></path>
                                            <path d="M124.695661,11.4126715 L145.002894,10.9874905 C153.899873,55.4110391 183.463153,81.3759388 243.26403,66.47826 L256.374407,123.541267 C200.336058,135.804075 148.650185,117.525744 133.103375,57.1536775 C129.078797,41.5252568 125.552592,25.2029169 124.695661,11.4126715 Z" id="Clothes-Back" fill="#69A1AC" transform="translate(190.535034, 69.066517) rotate(5.000000) translate(-190.535034, -69.066517) "></path>
                                            <path d="M119.956019,0 L119.971143,0.019 L150.679298,7.0316084 C150.679298,59.1707851 167.168625,92.6251763 175.871404,130.860589 L176.132716,132.020725 L93.2010253,132.020278 C92.0327639,145.400364 91.3153473,159.152672 90.9415064,173.277202 L90.9415064,173.277202 L28.8451434,173.277202 C42.9165275,98.6194386 72.6164587,40.8603712 117.944937,0 L117.944937,0 L119.956019,0 Z" id="Clothes" fill="#89C5CC"></path>
                                            <path d="M106.285297,56.887494 C104.148218,89.7048007 105.405214,114.749211 110.056286,132.020725 L110.056286,132.020725 L93.2010253,132.020278 C95.4644461,106.097341 99.420168,81.5715844 105.848291,58.4430091 Z" id="Shade" fill-opacity="0.1" fill="#000000"></path>
                                        </g>
                                    </g>
                                </g>
                            </g>
                        </g>
                    </g>
                </g>
            </g>
        </g>
    </g>
</svg>