<?xml version="1.0" encoding="UTF-8"?>
<svg width="103px" height="71px" viewBox="0 0 103 71" version="1.1" xmlns="http://www.w3.org/2000/svg" xmlns:xlink="http://www.w3.org/1999/xlink">
    <!-- Generator: Sketch 64 (93537) - https://sketch.com -->
    <title>“@1.5x</title>
    <desc>Created with Sketch.</desc>
    <g id="Symbols" stroke="none" stroke-width="1" fill="none" fill-rule="evenodd">
        <g id="Brands/Desktop/v2" transform="translate(-39.000000, -318.000000)" fill="#F5F5F5" fill-rule="nonzero">
            <g transform="translate(0.000000, 40.000000)" id="Testimonial-card">
                <g transform="translate(0.000000, 167.000000)">
                    <g id="quote" transform="translate(39.000000, 102.000000)">
                        <path d="M80.2121212,80 C87,80 92.4949495,78.1210586 96.6969697,74.3631757 C100.89899,70.6052928 103,65.6081081 103,59.3716216 C103,52.8153153 101.060606,47.7381757 97.1818182,44.1402027 C93.3030303,40.5422297 88.1313131,38.7432432 81.6666667,38.7432432 C74.0707071,38.7432432 68.1717172,41.2218468 63.969697,46.1790541 C63.6464646,45.0596847 63.4848485,43.3006757 63.4848485,40.902027 C63.4848485,37.8637387 63.8888889,35.2252252 64.6969697,32.9864865 C65.989899,28.9887387 68.2929293,25.1908784 71.6060606,21.5929054 C74.9191919,17.9949324 78.6767677,15.2364865 82.8787879,13.3175676 L82.8787879,13.3175676 L80.6969697,9 C72.2929293,12.8378378 65.9090909,18.2747748 61.5454545,25.3108108 C57.1818182,32.3468468 55,40.0225225 55,48.3378378 C55,53.1351351 55.5656566,57.5326577 56.6969697,61.5304054 C57.8282828,65.5281532 59.2828283,68.7263514 61.0606061,71.125 C65.1010101,77.0416667 71.4848485,80 80.2121212,80 Z M25.2121212,80 C32,80 37.4949495,78.1210586 41.6969697,74.3631757 C45.8989899,70.6052928 48,65.6081081 48,59.3716216 C48,52.8153153 46.0606061,47.7381757 42.1818182,44.1402027 C38.3030303,40.5422297 33.1313131,38.7432432 26.6666667,38.7432432 C19.0707071,38.7432432 13.1717172,41.2218468 8.96969697,46.1790541 C8.64646465,45.0596847 8.48484848,43.3006757 8.48484848,40.902027 C8.48484848,37.8637387 8.88888889,35.2252252 9.6969697,32.9864865 C10.989899,28.9887387 13.2929293,25.1908784 16.6060606,21.5929054 C19.9191919,17.9949324 23.6767677,15.2364865 27.8787879,13.3175676 L27.8787879,13.3175676 L25.6969697,9 C17.2929293,12.8378378 10.9090909,18.2747748 6.54545455,25.3108108 C2.18181818,32.3468468 0,40.0225225 0,48.3378378 C0,53.1351351 0.565656566,57.5326577 1.6969697,61.5304054 C2.82828283,65.5281532 4.28282828,68.7263514 6.06060606,71.125 C10.1010101,77.0416667 16.4848485,80 25.2121212,80 Z" id="“"></path>
                    </g>
                </g>
            </g>
        </g>
    </g>
</svg>