<?xml version="1.0" encoding="UTF-8"?>
<svg width="715px" height="502px" viewBox="0 0 715 502" version="1.1" xmlns="http://www.w3.org/2000/svg" xmlns:xlink="http://www.w3.org/1999/xlink">
    <!-- Generator: Sketch 64 (93537) - https://sketch.com -->
    <title>illustration/how-we-do-it@1.5x</title>
    <desc>Created with Sketch.</desc>
    <g id="Symbols" stroke="none" stroke-width="1" fill="none" fill-rule="evenodd">
        <g id="Illustration/HXDesign/01" transform="translate(-1.000000, -6.000000)">
            <g id="illustration/how-we-do-it">
                <g id="persona-04-student" opacity="0.499906994" transform="translate(385.000000, 299.000000) scale(-1, 1) translate(-385.000000, -299.000000) translate(301.000000, 134.000000)">
                    <g id="persona-04-shopper">
                        <g id="Head/Front" transform="translate(44.000000, 0.000000)">
                            <path d="M25.6,51.7028169 C34.7431503,51.7028169 38.0683979,40.7698491 43.262895,34.770133 C46.9794511,30.4774592 53.3224636,31.7574615 55.2,25.7478115 C59.921234,10.6360069 47.2848869,0 30.8,0 C14.3151131,0 3.2,9.32809516 0.8,23.3507171 C-1.6,37.373339 9.11511311,51.7028169 25.6,51.7028169 Z" id="Hair-Back" fill="#0E0301"></path>
                            <g id="Head" transform="translate(20.000000, 14.382567)" fill="#B28B67">
                                <path d="M30.5146731,7.29829991 C35.1505217,15.9287362 34.5996624,37.8205536 28.6082411,39.3630533 C26.218893,39.9781942 21.1288966,38.4713652 15.9484437,35.3526811 L19.2,58.3292978 L0,58.3292978 L6.60977163,27.5586413 C2.92347006,23.2368892 0.428509625,17.9405301 0.845421067,12.0058106 C2.04666418,-5.09384211 25.8788245,-1.33213638 30.5146731,7.29829991 Z"></path>
                            </g>
                            <path d="M51.6665284,21.7292829 C47.9946238,22.4177502 40.5993983,25.9191371 34.7032432,30.941677 C34.006522,30.5726458 33.2070571,30.3631961 32.3573347,30.3631961 C29.6371671,30.3631961 27.4320356,32.5096276 27.4320356,35.157385 C27.4320356,36.2384998 27.7996747,37.2360335 28.4199015,38.0379976 C27.2521202,39.9583533 26.4556614,41.9769056 26.194591,44.0520217 C22.1496281,44.0520217 7.38686422,28.7651332 22.0934321,14.3825666 C36.8,-6.03961325e-14 58.0528112,20.5318807 51.6665284,21.7292829 Z" id="Hair" fill="#0E0301"></path>
                        </g>
                        <path d="M97.6,36.0098771 C98.4825858,36.0098771 99.198063,36.7253543 99.198063,37.6079401 L99.198063,42.4118142 C99.198063,43.2944 98.4825858,44.0098771 97.6,44.0098771 C96.7174142,44.0098771 96.001937,43.2944 96.001937,42.4118142 L96.001937,37.6079401 C96.001937,36.7253543 96.7174142,36.0098771 97.6,36.0098771 Z" id="nose" fill="#8C6D50" transform="translate(97.600000, 40.009877) rotate(-90.000000) translate(-97.600000, -40.009877) "></path>
                        <path d="M88.8383319,27.931574 C89.2801597,27.931574 89.6383319,28.2897462 89.6383319,28.731574 L89.6383319,35.1218888 C89.6383319,35.5637166 89.2801597,35.9218888 88.8383319,35.9218888 C88.3965041,35.9218888 88.0383319,35.5637166 88.0383319,35.1218888 L88.0383319,28.731574 C88.0383319,28.2897462 88.3965041,27.931574 88.8383319,27.931574 Z M93.7668826,27.1670702 C94.2087104,27.1670702 94.5668826,27.5252424 94.5668826,27.9670702 L94.5668826,34.357385 C94.5668826,34.7992128 94.2087104,35.157385 93.7668826,35.157385 C93.3250548,35.157385 92.9668826,34.7992128 92.9668826,34.357385 L92.9668826,27.9670702 C92.9668826,27.5252424 93.3250548,27.1670702 93.7668826,27.1670702 Z" id="eyes" fill="#13202F"></path>
                        <path d="M154.981641,158.392774 C155.86888,167.629456 155.645052,174.226538 154.310156,178.184019" id="Path" stroke="#F9BE00" stroke-width="3.2" stroke-linecap="round" stroke-linejoin="round"></path>
                        <g id="Bottom/Skinny-Jeans-1" transform="translate(22.400000, 139.031477)">
                            <polygon id="Leg" fill="#997659" points="35.2 0 65.3046701 98.300185 79.8881233 181.89816 91.3225575 181.89816 75.9127793 0"></polygon>
                            <path d="M24.4301819,0 C26.474964,53.972085 24.0685317,81.8118638 23.610885,86.7154624 C23.1532383,91.619061 16.886557,123.414257 2.05094988,183.544298 L14.2351939,179.364748 C37.6814877,124.216601 45.6711486,95.5551358 48.360261,88.3135254 C51.0493735,81.0719149 58.1915225,51.6340731 69.7867082,0 L24.4301819,0 Z" id="Leg" fill="#B28B67"></path>
                            <g id="Accessories/Shoe/Flat-Sneaker" transform="translate(0.000000, 159.007264)" fill="#E4E4E4">
                                <path d="M2.14237939,20.2972731 C1.2474598,22.6834015 0.8,24.468791 0.8,25.6534416 C0.8,27.094324 1.04033136,29.1969299 1.52099409,31.9612591 C3.19454494,31.9612591 18.2350282,31.9612591 46.6424438,31.9612591 C47.8149904,28.0895579 47.1381285,25.9993509 44.6118583,25.6906384 C42.085588,25.3819258 39.9869724,25.103183 38.3160115,24.8544101 L17.3434854,15.5160726 C16.9398611,15.3363527 16.4669672,15.5178631 16.2872473,15.9214874 C16.284268,15.9281786 16.2813806,15.9349103 16.2785862,15.9416808 L14.9305705,19.207674 L14.9305705,19.207674 C12.591905,20.2975187 10.6914965,20.842441 9.22934491,20.842441 C8.04119409,20.842441 6.40027633,20.3630904 4.30659164,19.4043893 L4.30658383,19.4044064 C3.50316164,19.0365182 2.55362701,19.3895883 2.18573887,20.1930105 C2.17006343,20.2272437 2.15560127,20.2620196 2.14237939,20.2972731 Z" id="shoe"></path>
                            </g>
                            <g id="Accessories/Shoe/Flat-Sneaker" transform="translate(75.200000, 159.007264)" fill="#E4E4E4">
                                <path d="M2.14237939,20.2972731 C1.2474598,22.6834015 0.8,24.468791 0.8,25.6534416 C0.8,27.094324 1.04033136,29.1969299 1.52099409,31.9612591 C3.19454494,31.9612591 18.2350282,31.9612591 46.6424438,31.9612591 C47.8149904,28.0895579 47.1381285,25.9993509 44.6118583,25.6906384 C42.085588,25.3819258 39.9869724,25.103183 38.3160115,24.8544101 L17.3434854,15.5160726 C16.9398611,15.3363527 16.4669672,15.5178631 16.2872473,15.9214874 C16.284268,15.9281786 16.2813806,15.9349103 16.2785862,15.9416808 L14.9305705,19.207674 L14.9305705,19.207674 C12.591905,20.2975187 10.6914965,20.842441 9.22934491,20.842441 C8.04119409,20.842441 6.40027633,20.3630904 4.30659164,19.4043893 L4.30658383,19.4044064 C3.50316164,19.0365182 2.55362701,19.3895883 2.18573887,20.1930105 C2.17006343,20.2272437 2.15560127,20.2620196 2.14237939,20.2972731 Z" id="shoe"></path>
                            </g>
                            <polygon id="Bottom" fill="#69A1AC" points="31.2 0 44 50.0829095 83.0962543 50.0829095 77.2668436 0"></polygon>
                            <path d="M24,0 C19.7883513,12.609153 18.9883513,29.3034562 21.6,50.0829095 L61.4962543,50.0829095 L72.4668436,0 L24,0 Z" id="Bottom" fill="#89C5CC"></path>
                        </g>
                        <g id="Body/Long-Sleeve-1" transform="translate(0.000000, 55.133172)">
                            <path d="M27.4463424,74.3258212 L44.1642559,74.3914854 C33.8417157,107.674077 28.2690779,125.333612 27.4463424,127.37009 C25.5951876,131.952164 29.5124801,138.930585 31.1876699,142.680736 C25.7316327,145.119194 26.3129793,136.088587 19.4303351,139.286761 C13.1481767,142.205906 8.36935448,147.495202 1.11122817,143.022137 C0.218884188,142.4722 -0.758979433,140.401588 1.6036627,138.783514 C7.48986587,134.752302 15.9722412,127.696954 17.1183437,125.374631 C18.6812592,122.20773 22.1239255,105.19146 27.4463424,74.3258212 L27.4463424,74.3258212 Z M128.035528,71.211692 L150.697851,93.2929453 C157.291752,96.1021888 162.694514,99.204161 166.906138,102.598862 C167.853269,103.739936 168.884376,105.926294 164.428171,104.94793 C159.971966,103.969566 155.240653,103.140644 154.403117,104.58808 C153.565582,106.035516 156.033448,108.253503 154.485579,110.147824 C153.453666,111.410705 149.983261,107.393728 144.074365,98.0968926 L120.508545,84.2198887 L128.035528,71.211692 Z" id="Skin" fill="#B28B67"></path>
                            <path d="M70.4212271,7.38033099 L77.2088635,5.59682546 C91.6635107,34.1618838 114.731338,59.2477585 146.412345,80.8544496 L126.443712,109.917532 C93.8689872,78.0558511 72.5381564,44.1091994 70.4212271,7.38033099 Z" id="Coat-Back" fill="#E87613" transform="translate(108.416786, 57.757179) rotate(5.000000) translate(-108.416786, -57.757179) "></path>
                            <path d="M44.8,91.0895884 L106.4,91.0895884 C92.1286956,56.4317154 84.9930434,26.9902634 84.9930434,2.76523244 L66.4113664,0 C51.8079143,23.4582912 47.683861,52.3401973 44.8,91.0895884 Z" id="Shirt" fill="#DDE3E9"></path>
                            <path d="M67.2382017,0 C68.689584,0.0499180019 70.9002257,0.139855194 73.8701266,0.269811575 L73.8701266,0.269811575 L78.3601265,13.0856427 C78.835069,28.7111369 81.6086606,60.200724 86.6809015,107.554404 L86.6809015,107.554404 L46.3008634,107.554345 C46.4067191,110.824888 46.5812593,114.125982 46.8244838,117.457627 L46.8244838,117.457627 L16.8,117.457627 C21.2911332,66.8501402 37.6921899,27.6975978 66.0031701,4.26325641e-14 L66.0031701,4.26325641e-14 L66.018,0.013 L66.0252661,0 Z" id="Coat-Front" fill="#FF9B21"></path>
                            <path d="M57.6,107.869249 L46.3112285,107.868171 C45.8171266,93.2017489 46.7026087,79.1489779 48.9676747,65.7098585 C50.1177744,86.0958122 52.9949705,100.148605 57.6,107.869249 Z" id="Shade" fill-opacity="0.1" fill="#000000"></path>
                            <polygon id="Light" fill-opacity="0.2" fill="#FFFFFF" points="55.2887191 83.0992736 75.2 73.8538976 75.2 83.0992736"></polygon>
                        </g>
                        <path d="M133.606203,170.19535 L157.604863,170.189908 C159.372174,170.188055 160.805188,171.620419 160.805588,173.38773 C160.805588,173.388215 160.805588,173.388699 160.804136,173.389182 L160.794524,215.732254 C160.79267,217.498997 159.360541,218.931126 157.593797,218.932979 L133.595137,218.938421 C131.827826,218.940274 130.394812,217.50791 130.394412,215.740599 C130.394412,215.740115 130.394412,215.739631 130.395864,215.739147 L130.405476,173.396076 C130.40733,171.629332 131.839459,170.197203 133.606203,170.19535 Z" id="Rectangle" fill="#F9BE00" transform="translate(145.600000, 194.564165) rotate(11.000000) translate(-145.600000, -194.564165) "></path>
                        <path d="M144.4,171.370207 C142.949802,155.730441 145.090589,147.910558 150.822359,147.910558" id="Path-4" stroke="#F9BE00" stroke-width="3.2" stroke-linecap="round" stroke-linejoin="round"></path>
                    </g>
                </g>
                <g id="persona-02-customer" opacity="0.801130022" transform="translate(577.500000, 247.500000) scale(-1, 1) translate(-577.500000, -247.500000) translate(439.000000, 31.000000)">
                    <g>
                        <g id="Head/Front">
                            <g id="Head" transform="translate(123.000000, 38.000000)">
                                <path d="M38.1433414,9.13393292 C43.9381521,19.9350547 43.249578,47.3329958 35.7603014,49.2634576 C32.773664,50.0333035 26.4113241,48.1475566 19.935865,44.2446031 L24,73 L0,73 L8.26160177,34.4893378 C3.65406109,29.0807313 0.535660132,22.452516 1.05677633,15.0254539 C2.55833022,-6.37502057 32.3485306,-1.66718886 38.1433414,9.13393292 Z" fill="#EAAB86"></path>
                                <rect id="nose" fill="#DA9770" transform="translate(41.000000, 34.000000) rotate(-90.000000) translate(-41.000000, -34.000000) " x="39" y="29" width="4" height="10" rx="2"></rect>
                                <path d="M31.0479149,18.9567881 C31.6001997,18.9567881 32.0479149,19.4045033 32.0479149,19.9567881 L32.0479149,27.9567881 C32.0479149,28.5090728 31.6001997,28.9567881 31.0479149,28.9567881 C30.4956302,28.9567881 30.0479149,28.5090728 30.0479149,27.9567881 L30.0479149,19.9567881 C30.0479149,19.4045033 30.4956302,18.9567881 31.0479149,18.9567881 Z M37.2086033,18 C37.760888,18 38.2086033,18.4477153 38.2086033,19 L38.2086033,27 C38.2086033,27.5522847 37.760888,28 37.2086033,28 C36.6563185,28 36.2086033,27.5522847 36.2086033,27 L36.2086033,19 C36.2086033,18.4477153 36.6563185,18 37.2086033,18 Z" id="eyes" fill="#13202F" transform="translate(34.128259, 23.478394) scale(-1, 1) translate(-34.128259, -23.478394) "></path>
                            </g>
                            <path d="M147.46395,34.6852568 C144.30082,34.1665378 135.783951,33.8099042 134.213288,33.8101344 C133.209561,33.8101344 132.121826,34.0394482 131.527347,33.1178184 C131.040518,32.3631089 131.218861,31.0866873 131.07357,30.2108742 C130.904866,29.1934668 130.665239,28.1891827 130.422857,27.1874312 C129.733124,24.3368945 128.690147,21.6249591 127.230806,19.0787928 C124.492532,14.3018818 120.481065,10.5601063 115.416751,8.38277606 C109.824292,5.97866458 103.495965,5.42817325 97.4804855,5.91581049 C91.0431327,6.43752248 85.2158664,8.56258942 79.137955,10.5624086 C73.346036,12.4680618 67.2796011,13.2181667 61.2218882,12.2875578 C55.1184992,11.3500418 50.5068151,8.0420286 45.3587232,4.90231703 C40.0885222,1.68800939 34.0656977,-0.4142643 27.8353795,0.0689984841 C22.0195896,0.520258635 16.6594134,2.9216073 11.8503349,6.12946836 C7.35089022,9.13080883 3.63826876,12.741811 1.54221565,17.8240133 C-0.712671098,23.2909379 -0.710605343,29.291777 2.99742554,34.1232537 C8.37206196,41.1265349 18.3498899,42.9375616 26.6510131,42.7575181 C31.4525172,42.6536822 36.1681776,41.7771784 40.701363,40.1828026 C46.7469108,38.0563543 51.9712062,34.4522592 57.6270148,31.5280473 C60.281281,30.1558481 63.0248336,29.0288489 65.9005946,28.2170411 C68.6912006,27.4289475 71.4398029,27.0674789 73.9664512,28.7532579 C76.6393091,30.5366564 79.0344377,32.2885128 82.0922147,33.4049212 C85.0255874,34.4759733 88.132713,35.0750442 91.2579713,35.0508696 C97.338637,35.0039017 103.33277,33.1092997 109.238536,31.8402457 C114.0545,30.8055706 119.207412,29.7743491 124.117253,30.7689633 C126.166024,31.1840766 129.158615,32.0410104 129.898614,34.1702216 C117.444175,36.4274433 112.552707,51.8301494 116.063803,63.1372093 C117.958789,69.2400423 129.349812,76.3741897 133.778791,73.1658382 C136.584677,71.1332552 134.881216,68.4648419 133.778791,66.7033156 C131.667589,63.3299158 130.945263,58.9966672 134.851836,56.6480423 C138.221542,54.6224367 141.764556,59.4327123 141.831578,59.4274169 C142.757725,59.3544325 150.76044,54.8285457 156.274165,48.224129 C161.713475,48.5465656 162.538697,44.9600245 161.239896,42.026908 C159.941096,39.0937915 151.8344,35.4024381 147.46395,34.6852568 Z" id="hair" fill="#191847"></path>
                        </g>
                        <g id="Bottom/Skinny-Jeans-1" transform="translate(11.000000, 166.000000)">
                            <path d="M183.469522,18.3415981 C164.34471,33.9341261 171.620321,170.644251 170.343793,172.365431 C169.776447,173.1304 139.468239,179.639612 79.4191689,191.893066 L82.0111198,202.474064 C152.253239,198.987921 189.421261,194.637951 193.515185,189.424153 C199.376511,181.959489 206.620797,140.212202 215.248044,64.1822931 L183.469522,18.3415981 Z" id="Leg" fill="#DA9770" transform="translate(147.333606, 110.407831) rotate(-55.000000) translate(-147.333606, -110.407831) "></path>
                            <path d="M89.5400878,180.75781 L94.1055269,197.799273 C146.465638,203.811529 180.983252,196.36956 193.132934,184.81223 C201.232723,177.107343 208.495664,135.473517 214.921759,59.9107522 L180.926407,11.3603581 C135.401042,45.7063231 162.537309,158.140454 161.373895,160.713083 C160.210481,163.285712 132.597106,165.319958 89.5400878,180.75781 Z" id="Pant" fill="#191847" transform="translate(152.230924, 105.646617) rotate(-55.000000) translate(-152.230924, -105.646617) "></path>
                            <g id="Accessories/Shoe/Flat-Sneaker" transform="translate(199.383915, 215.279121) rotate(20.000000) translate(-199.383915, -215.279121) translate(168.883915, 195.279121)" fill="#E4E4E4">
                                <path d="M2.67813181,25.4019242 C1.55937727,28.3884109 1,30.6229931 1,32.1056708 C1,33.908957 1.3004142,36.5404001 1.90124261,40 C3.99318117,40 22.7937852,40 58.3030548,40 C59.768738,35.1545073 58.9226607,32.5385816 55.7648228,32.1522232 C52.606985,31.7658647 49.9837155,31.4170139 47.8950143,31.1056708 L21.6799926,19.4188835 C21.1755635,19.1940064 20.584344,19.4206282 20.359467,19.9250573 C20.35562,19.9336867 20.3518954,19.9423702 20.3482945,19.9511052 L18.6632131,24.038695 L18.6632131,24.038695 C15.7398812,25.4026522 13.3643706,26.0846307 11.5366811,26.0846307 C10.0517269,26.0846307 8.00099246,25.4849054 5.38447792,24.2854549 L5.38448339,24.285443 C4.38038273,23.8251478 3.19325534,24.2659892 2.73296014,25.2700899 C2.71312074,25.3133681 2.69483298,25.3573409 2.67813181,25.4019242 Z" id="shoe"></path>
                            </g>
                            <polygon id="Leg" fill="#DA9770" points="106 28 54.2540376 152.226909 3.39581064 257.25029 15.3949124 257.25029 146.673688 28"></polygon>
                            <g id="Accessories/Shoe/Flat-Sneaker" transform="translate(0.000000, 227.000000)" fill="#E4E4E4">
                                <path d="M2.67813181,25.4019242 C1.55937727,28.3884109 1,30.6229931 1,32.1056708 C1,33.908957 1.3004142,36.5404001 1.90124261,40 C3.99318117,40 22.7937852,40 58.3030548,40 C59.768738,35.1545073 58.9226607,32.5385816 55.7648228,32.1522232 C52.606985,31.7658647 49.9837155,31.4170139 47.8950143,31.1056708 L21.6799926,19.4188835 C21.1755635,19.1940064 20.584344,19.4206282 20.359467,19.9250573 C20.35562,19.9336867 20.3518954,19.9423702 20.3482945,19.9511052 L18.6632131,24.038695 L18.6632131,24.038695 C15.7398812,25.4026522 13.3643706,26.0846307 11.5366811,26.0846307 C10.0517269,26.0846307 8.00099246,25.4849054 5.38447792,24.2854549 L5.38448339,24.285443 C4.38038273,23.8251478 3.19325534,24.2659892 2.73296014,25.2700899 C2.71312074,25.3133681 2.69483298,25.3573409 2.67813181,25.4019242 Z" id="shoe"></path>
                            </g>
                            <path d="M7.98854881,235.432889 L34.6506859,240.432889 C55.2657755,210.124875 141.540767,85.851839 151,28 L91.6440731,28 C60.0548806,69.821022 27.6389867,204.623522 7.98854881,235.432889 Z" id="Pant" fill="#5C63AB"></path>
                        </g>
                        <g id="Body/Long-Sleeve-1" transform="translate(11.000000, 89.000000)">
                            <path d="M49.5082829,82 L70,86.0658446 C49.3920824,124.471059 38.3404263,144.825845 36.8450319,147.130202 C33.4803944,152.315007 36.6196693,161.817238 37.7793043,166.821179 C30.5044044,168.51462 33.3734014,157.565005 24.1671562,159.851185 C15.7641225,161.937904 8.63936317,167.293169 0.803878403,160.07074 C-0.159448408,159.182785 -0.864649181,156.407288 2.41981989,154.983749 C10.6026301,151.437195 22.6920431,144.796343 24.6523424,142.218096 C27.3255608,138.702197 35.6108743,118.629498 49.5082829,82 Z M252.188168,51.2551684 L251.816855,51.7996726 C248.728428,56.3479545 245.838405,61.1194481 247.076289,62.7052963 C248.363689,64.3545786 252.093006,62.5342201 253.566345,65.2162765 C254.548571,67.0043141 248.262286,69.1431805 234.707491,71.6328758 L207.56994,92.4392868 L196,77.6170876 L232.234567,61.7041739 C238.582018,55.3790221 244.711387,50.5716141 250.622674,47.2819501 C252.390261,46.7192094 255.410101,46.5491987 252.188168,51.2551684 Z" id="Skin" fill="#DA9770"></path>
                            <path d="M121.280247,9.87718027 L129.765198,7.64600959 C150.120135,24.2050747 161.602366,67.2616718 174.61267,71.9556463 C186.913385,76.3936093 203.208593,69.6320097 222.503164,60.7390322 L229.796052,73.8353428 C213.409826,95.0000245 176.298612,114.916545 159.84294,106.839809 C133.533742,93.9267871 123.046804,40.501408 121.280247,9.87718027 Z" id="Coat-Back" fill="#DB2721" transform="translate(175.538150, 58.161768) rotate(5.000000) translate(-175.538150, -58.161768) "></path>
                            <path d="M88,114 C122.671756,114 148.175573,114 164.511451,114 C168.007634,114 167.348845,108.951637 166.84345,106.404206 C161.010588,77.0037663 138.241304,45.3115155 138.241304,3.4607303 L116.1718,0 C97.917485,29.3584068 91.6048263,65.5045499 88,114 Z" id="Shirt" fill="#DDE3E9"></path>
                            <path d="M123.486398,0 C143.298923,67.5369477 148.760885,112.536948 139.872285,135 L139.872285,135 L71,135 C72.0896915,118.562494 75.5838029,101.179176 80.3695915,84.2302075 C64.7719945,112.366884 51.6611932,132.623153 41.0374452,145 L25,141.85882 C35.3305927,77.7906722 65.2466105,30.5043988 114.748053,-9.9475983e-14 Z" id="Coat-Front" fill="#FF4133"></path>
                        </g>
                    </g>
                </g>
                <g id="persona-01-audience" transform="translate(214.000000, 254.500000) scale(-1, 1) translate(-214.000000, -254.500000) ">
                    <g transform="translate(0.000000, 0.998979)">
                        <g id="Head" transform="translate(147.141714, 59.382955) scale(-1, 1) rotate(12.000000) translate(-147.141714, -59.382955) translate(113.616649, 5.937555)">
                            <g transform="translate(5.283951, 9.230570)" fill="#EAAB86">
                                <path d="M50.3868831,12.0444867 C58.0417565,26.2874167 57.1321585,62.4157898 47.2389167,64.9613987 C43.2934672,65.9765939 34.8884435,63.4897383 26.3341314,58.3427305 L31.7037037,96.261658 L0,96.261658 L10.9136704,45.4796938 C4.82705823,38.3475773 0.707593015,29.6071796 1.39598849,19.8133576 C3.37952264,-8.40643905 42.7320096,-2.19844334 50.3868831,12.0444867 Z"></path>
                            </g>
                            <path d="M13.7622321,61.0635433 C9.78310526,43.3921956 -1.55277778,31.34623 0.178483483,23.4478933 C1.33265766,18.1823355 4.40887782,14.90787 9.40714399,13.6244967 C11.9921999,3.18520708 20.3295357,-1.2550297 34.4191514,0.30378641 C55.5535749,2.64201057 68.4528505,11.4033917 62.8822909,30.6822535 C57.7616366,30.6822535 51.5799125,28.8336456 43.0318729,32.0009063 C40.3196144,33.0058654 38.3797277,36.1223316 37.2122126,41.3503049 L33.3493873,41.3503049 C29.6003526,35.1461298 25.9037804,32.8662648 22.2596706,34.5107098 C18.6155608,36.1551548 17.7871955,40.1495183 19.7745744,46.4938002 L17.8717424,61.0635433 L13.7622321,61.0635433 Z" id="Hair" fill="#E87613"></path>
                            <path d="M59.7323575,46.9544895 C61.1889012,46.9544895 62.3696632,48.1352514 62.3696632,49.5917952 L62.3696632,57.5270603 C62.3696632,58.983604 61.1889012,60.164366 59.7323575,60.164366 C58.2758138,60.164366 57.0950518,58.983604 57.0950518,57.5270603 L57.0950518,49.5917952 C57.0950518,48.1352514 58.2758138,46.9544895 59.7323575,46.9544895 Z" id="nose" fill="#DA9770" transform="translate(59.732357, 53.559428) rotate(-90.000000) translate(-59.732357, -53.559428) "></path>
                            <path d="M47.5565432,35.6036269 C48.2855591,35.6036269 48.8765432,36.1946111 48.8765432,36.9236269 L48.8765432,47.4701554 C48.8765432,48.1991713 48.2855591,48.7901554 47.5565432,48.7901554 L47.5545679,48.7901554 C46.825552,48.7901554 46.2345679,48.1991713 46.2345679,47.4701554 L46.2345679,36.9236269 C46.2345679,36.1946111 46.825552,35.6036269 47.5545679,35.6036269 L47.5565432,35.6036269 Z M55.6947365,34.3419556 C56.4237523,34.3419556 57.0147365,34.9329397 57.0147365,35.6619556 L57.0147365,46.2084841 C57.0147365,46.9375 56.4237523,47.5284841 55.6947365,47.5284841 L55.6927611,47.5284841 C54.9637453,47.5284841 54.3727611,46.9375 54.3727611,46.2084841 L54.3727611,35.6619556 C54.3727611,34.9329397 54.9637453,34.3419556 55.6927611,34.3419556 L55.6947365,34.3419556 Z" id="eyes" fill="#13202F"></path>
                        </g>
                        <g id="Bottom" transform="translate(222.846614, 349.363087) scale(-1, 1) translate(-222.846614, -349.363087) translate(17.693229, 191.524337)">
                            <polygon id="Leg" fill="#DA9770" points="173.049383 0 271.207237 163.812168 344.797387 302.301548 360.648052 302.301548 237.346723 6.71244278e-13"></polygon>
                            <g id="Right-Shoe" transform="translate(332.888889, 287.466321)" fill="#E4E4E4">
                                <path d="M2.21725672,8.44067571 C0.739085573,12.3794363 0,15.3264878 0,17.2818302 C0,19.6597387 0.396843455,23.1296986 1.19053037,27.6917098 C3.95395537,27.6917098 28.7893212,27.6917098 75.696628,27.6917098 C77.6327773,21.302187 76.5151196,17.8526893 72.3436549,17.3432165 C68.1721901,16.8337438 64.7068835,16.3737308 61.947735,15.9631773 L27.3158611,0.551403354 C26.6498196,0.255003536 25.8696067,0.554657329 25.5732069,1.22069883 C25.5683656,1.23157789 25.5636716,1.24252196 25.5591264,1.25352804 L23.3328864,6.64428958 L23.3328864,6.64428958 C19.4712011,8.44287551 16.3331809,9.34216848 13.9188257,9.34216848 C11.9564311,9.34216848 9.24604698,8.55070324 5.78767343,6.96777276 L5.78767846,6.96776175 C4.46191394,6.36094672 2.89524867,6.94377043 2.28843363,8.26953495 C2.2627121,8.32573116 2.23897183,8.38281325 2.21725672,8.44067571 Z" id="shoe"></path>
                            </g>
                            <path d="M324.359347,280.125234 L354.927075,270.894665 C341.53452,230.928915 325.120042,186.948073 305.683642,138.952138 C286.247242,90.9562034 265.37327,44.638824 243.061728,0 L156.727356,0 C181.532993,56.4660627 207.830294,107.772729 235.61926,153.919999 C263.408226,200.067268 292.988255,242.13568 324.359347,280.125234 Z" id="Pant" fill="#191847"></path>
                            <path d="M166.598509,0 C157.334251,57.5647205 139.466034,131.110315 137.779756,133.379954 C136.655571,134.893046 96.1846135,148.430465 16.3668843,173.992209 L19.7908193,187.944872 C114.973274,174.235943 165.126311,163.599992 170.249928,156.037019 C177.935355,144.69256 216.309728,55.0710796 231.17284,0 L166.598509,0 Z" id="Leg" fill="#DA9770"></path>
                            <path d="M44.4241646,161.931199 L50.4550533,184.402972 C121.645984,190.635823 165.266239,186.132196 181.31582,170.89209 C197.365401,155.651984 215.657185,98.6879542 236.191173,0 L153.866193,0 C140.856341,80.8121553 133.582988,122.914435 132.046132,126.30684 C130.509276,129.699245 101.301954,141.574031 44.4241646,161.931199 Z" id="Pant" fill="#2F3676"></path>
                            <g id="Accessories/Shoe/Flat-Sneaker" transform="translate(33.685185, 203.072539) rotate(80.000000) translate(-33.685185, -203.072539) translate(-6.604938, 176.699482)" fill="#E4E4E4">
                                <path d="M3.53824437,33.4950799 C2.06007323,37.4338404 1.32098765,40.3808919 1.32098765,42.3362343 C1.32098765,44.7141428 1.71783111,48.1841027 2.51151802,52.746114 C5.27494303,52.746114 30.1103089,52.746114 77.0176156,52.746114 C78.953765,46.3565912 77.8361073,42.9070934 73.6646425,42.3976207 C69.4931778,41.888148 66.0278711,41.4281349 63.2687226,41.0175815 L28.6368487,25.6058075 C27.9708072,25.3094077 27.1905944,25.6090615 26.8941946,26.275103 C26.8893532,26.285982 26.8846593,26.2969261 26.8801141,26.3079322 L24.6538741,31.6986937 L24.6538741,31.6986937 C20.7921888,33.4972797 17.6541685,34.3965726 15.2398134,34.3965726 C13.2774187,34.3965726 10.5670346,33.6051074 7.10866108,32.0221769 L7.10866612,32.0221659 C5.7829016,31.4153509 4.21623632,31.9981746 3.60942129,33.3239391 C3.58369975,33.3801353 3.55995948,33.4372174 3.53824437,33.4950799 Z" id="shoe"></path>
                            </g>
                        </g>
                        <g id="Body" transform="translate(190.713932, 194.716157) scale(-1, 1) rotate(21.000000) translate(-190.713932, -194.716157) translate(33.096087, 74.838625)">
                            <path d="M66.0094782,98.1732872 L94.9356624,98.2816536 C63.2173163,169.533487 46.6788787,206.839817 45.3203494,210.200645 C42.2636586,217.762507 48.7320274,229.279092 51.4981586,235.468019 C42.4889614,239.492241 43.448901,224.588904 32.0840411,229.866895 C21.7107239,234.684401 13.8197674,243.4134 1.83489836,236.031438 C0.361429137,235.123869 -1.25325308,231.706709 2.64802329,229.036379 C12.3675254,222.383613 26.3739169,210.740073 28.2664009,206.907512 C30.847141,201.68113 43.4281668,165.436389 66.0094782,98.1732872 L66.0094782,98.1732872 Z M311.347746,72.9415419 C305.503641,77.8049225 299.573972,83.184837 300.615214,85.7803383 C301.656457,88.3758396 307.091401,87.4101392 307.991756,91.4022409 C308.591993,94.063642 299.77141,94.4960932 281.530006,92.6995944 L239.209562,109.448187 L229.851852,86.1222592 L282.008243,79.0204894 C292.441638,73.2274649 302.039855,69.3056887 310.802894,67.2551607 C313.268904,67.1832878 317.191852,68.0781613 311.347746,72.9415419 Z" id="Skin" fill="#DA9770"></path>
                            <path d="M139.340099,12.7608604 L162.03344,12.2873164 C171.980416,61.9836271 205.020134,91.0328901 271.846227,74.373437 L286.502991,138.209594 C223.881261,151.921878 166.120284,131.469085 148.740458,63.9309236 C144.24137,46.4474273 140.299144,28.1877142 139.340099,12.7608604 Z" id="Clothes-Back" fill="#69A1AC" transform="translate(212.921545, 77.262816) rotate(5.000000) translate(-212.921545, -77.262816) "></path>
                            <path d="M134.050068,0 L134.06726,0.021 L168.383132,7.86612895 C168.383132,66.1932519 186.809847,103.618054 196.535146,146.391296 L196.82716,147.689119 L104.151507,147.688972 C102.846,162.656913 102.044301,178.041245 101.62654,193.841969 L101.62654,193.841969 L32.2342595,193.841969 C47.9589394,110.323724 81.1484186,45.709734 131.802697,0 L131.802697,0 L134.050068,0 Z" id="Clothes" fill="#89C5CC"></path>
                            <path d="M118.773141,63.6387282 C116.384948,100.350958 117.789627,128.367755 122.987181,147.689119 L122.987181,147.689119 L104.151594,147.687971 C106.680961,118.688705 111.101442,91.2524151 118.284774,65.3791024 Z" id="Shade" fill-opacity="0.1" fill="#000000"></path>
                        </g>
                    </g>
                </g>
            </g>
        </g>
    </g>
</svg>